<svg width="28" height="28" viewBox="0 0 28 28" fill="none" xmlns="http://www.w3.org/2000/svg">
<rect width="28" height="28" rx="14" fill="#F4F5FF"/>
<path d="M6 10C6 7.79086 7.79086 6 10 6H18C20.2091 6 22 7.79086 22 10V18C22 20.2091 20.2091 22 18 22H10C7.79086 22 6 20.2091 6 18V10Z" fill="#5061FF"/>
<path fill-rule="evenodd" clip-rule="evenodd" d="M14 6V14.0184C14 14.612 13.2301 14.8451 12.9008 14.3512L12.4992 13.7489C12.2617 13.3926 11.7383 13.3926 11.5008 13.7489L11.0992 14.3512C10.7699 14.8451 10 14.612 10 14.0184V6H14Z" fill="#A5ADFF"/>
</svg>
