<svg width="28" height="28" viewBox="0 0 28 28" fill="none" xmlns="http://www.w3.org/2000/svg">
<rect width="28" height="28" rx="14" fill="#F6F5FF"/>
<path fill-rule="evenodd" clip-rule="evenodd" d="M5 11C5 8.79086 6.79086 7 9 7H19C21.2091 7 23 8.79086 23 11V15C23 17.2091 21.2091 19 19 19H16.3094L14.4754 21.3824C14.2353 21.6944 13.7647 21.6944 13.5246 21.3824L11.6906 19H9C6.79086 19 5 17.2091 5 15V11ZM10 14C10.5523 14 11 13.5523 11 13C11 12.4477 10.5523 12 10 12C9.44772 12 9 12.4477 9 13C9 13.5523 9.44772 14 10 14ZM14 14C14.5523 14 15 13.5523 15 13C15 12.4477 14.5523 12 14 12C13.4477 12 13 12.4477 13 13C13 13.5523 13.4477 14 14 14ZM19 13C19 13.5523 18.5523 14 18 14C17.4477 14 17 13.5523 17 13C17 12.4477 17.4477 12 18 12C18.5523 12 19 12.4477 19 13Z" fill="#504DE1"/>
</svg>
