<svg width="20" height="20" viewBox="0 0 20 20" fill="none" xmlns="http://www.w3.org/2000/svg">
<path fill-rule="evenodd" clip-rule="evenodd" d="M5 3C2.79086 3 1 4.79086 1 7V11C1 13.2091 2.79086 15 5 15H7.6906L9.52456 17.3824C9.76474 17.6944 10.2353 17.6944 10.4754 17.3824L12.3094 15H15C17.2091 15 19 13.2091 19 11V7C19 4.79086 17.2091 3 15 3H5ZM11 11C11 11.5523 10.5523 12 10 12L5 12C4.44772 12 4 11.5523 4 11C4 10.4477 4.44772 10 5 10L10 10C10.5523 10 11 10.4477 11 11ZM13 8C13.5523 8 14 7.55229 14 7C14 6.44772 13.5523 6 13 6L5 6C4.44772 6 4 6.44771 4 7C4 7.55228 4.44772 8 5 8L13 8Z" fill="#5061FF"/>
</svg>
