<svg width="20" height="20" viewBox="0 0 20 20" fill="none" xmlns="http://www.w3.org/2000/svg">
<path fill-rule="evenodd" clip-rule="evenodd" d="M8.37965 13.6L10 15.7049L11.6203 13.6H15C16.4359 13.6 17.6 12.4359 17.6 11V7C17.6 5.56406 16.4359 4.4 15 4.4H5C3.56406 4.4 2.4 5.56406 2.4 7V11C2.4 12.4359 3.56406 13.6 5 13.6H8.37965ZM1 7C1 4.79086 2.79086 3 5 3H15C17.2091 3 19 4.79086 19 7V11C19 13.2091 17.2091 15 15 15H12.3094L10.4754 17.3824C10.2353 17.6944 9.76474 17.6944 9.52456 17.3824L7.6906 15H5C2.79086 15 1 13.2091 1 11V7Z" fill="#504DE1"/>
<path d="M11 11C11 11.5523 10.5523 12 10 12L5 12C4.44772 12 4 11.5523 4 11C4 10.4477 4.44772 10 5 10L10 10C10.5523 10 11 10.4477 11 11Z" fill="#504DE1"/>
<path d="M14 7C14 7.55229 13.5523 8 13 8L5 8C4.44772 8 4 7.55228 4 7C4 6.44771 4.44772 6 5 6L13 6C13.5523 6 14 6.44772 14 7Z" fill="#504DE1"/>
</svg>
