<svg width="24" height="24" viewBox="0 0 24 24" fill="none" xmlns="http://www.w3.org/2000/svg">
<rect width="24" height="24" rx="4" fill="#F4F5FF"/>
<path fill-rule="evenodd" clip-rule="evenodd" d="M11.8805 6C8.94577 6 6.3106 8.36347 5.84785 11.6844H3.8335C4.31283 7.35597 7.73279 4 11.8805 4C16.0282 4 19.4481 7.35597 19.9275 11.6844H17.9131C17.4504 8.36347 14.8152 6 11.8805 6ZM18 18.5C18 18.7761 17.7761 19 17.5 19H12.5C12.2239 19 12 18.7761 12 18.5C12 18.2239 12.2239 18 12.5 18H17V16.5C17 16.2239 17.2239 16 17.5 16C17.7761 16 18 16.2239 18 16.5V18.5Z" fill="#A5ADFF"/>
<path fill-rule="evenodd" clip-rule="evenodd" d="M5.04178 15.9991C5.02793 15.9997 5.014 16 5 16C3.89543 16 3 15.1046 3 14L3 13C3 11.8954 3.89543 11 5 11C5.014 11 5.02793 11.0003 5.04178 11.0009C5.1895 10.4253 5.71174 10 6.33333 10C6.70152 10 7 10.2985 7 10.6667L7 16.3333C7 16.7015 6.70152 17 6.33333 17C5.71174 17 5.1895 16.5747 5.04178 15.9991ZM17.6667 10C18.2883 10 18.8105 10.4253 18.9582 11.0009C18.9721 11.0003 18.986 11 19 11C20.1046 11 21 11.8954 21 13V14C21 15.1046 20.1046 16 19 16C18.986 16 18.9721 15.9997 18.9582 15.9991C18.8105 16.5747 18.2883 17 17.6667 17C17.2985 17 17 16.7015 17 16.3333V10.6667C17 10.2985 17.2985 10 17.6667 10ZM11.3333 20C10.597 20 10 19.403 10 18.6667C10 18.2985 10.2985 18 10.6667 18H13.3333C13.7015 18 14 18.2985 14 18.6667C14 19.403 13.403 20 12.6667 20H11.3333Z" fill="#5061FF"/>
</svg>
