<svg width="11" height="11" viewBox="0 0 11 11" fill="none" xmlns="http://www.w3.org/2000/svg">
<path fill-rule="evenodd" clip-rule="evenodd" d="M9.72757 2.95393C10.1962 2.4853 10.1962 1.7255 9.72757 1.25687C9.25894 0.788241 8.49915 0.788241 8.03052 1.25687L5.48528 3.80211L2.94012 1.25694C2.47149 0.788312 1.71169 0.788312 1.24306 1.25694C0.77443 1.72557 0.774431 2.48537 1.24306 2.954L3.78822 5.49916L1.24229 8.04509C0.773662 8.51372 0.773661 9.27352 1.24229 9.74215C1.71092 10.2108 2.47072 10.2108 2.93935 9.74215L5.48528 7.19622L8.03128 9.74222C8.49991 10.2109 9.25971 10.2109 9.72834 9.74222C10.197 9.27359 10.197 8.51379 9.72834 8.04517L7.18234 5.49916L9.72757 2.95393Z" fill="#454545"/>
</svg>
