<svg width="350" height="158" viewBox="0 0 350 158" fill="none" xmlns="http://www.w3.org/2000/svg">
<rect width="350" height="158" rx="12" fill="#F5F5F5"/>
<path d="M25.3493 21.906V32H24.3413V23.054L22.7733 24.146L22.2133 23.376L24.3413 21.906H25.3493ZM30.2236 30.782C30.6296 30.782 30.9096 31.062 30.9096 31.468C30.9096 31.888 30.6296 32.182 30.2236 32.182C29.8036 32.182 29.5096 31.888 29.5096 31.468C29.5096 31.062 29.8036 30.782 30.2236 30.782ZM38.148 21.388H43.72V22.242H39.198V23.6H43.51V24.426H39.198V25.868C41.606 25.868 42.95 25.826 44.574 25.546L44.672 26.386C42.992 26.68 41.592 26.722 39.072 26.722H38.148V21.388ZM39.324 28.612V27.772H47.066V30.628H40.388V32.042H47.514V32.882H39.352V29.844H46.03V28.612H39.324ZM46.016 27.17V20.772H47.066V23.474H48.886V24.342H47.066V27.17H46.016ZM50.7763 21.906H57.1043V22.746H51.8263V24.258H56.8383V25.098H51.8263V26.694H57.1463V27.548H54.4023V29.564C55.5783 29.508 56.7683 29.396 57.8743 29.228L57.9583 30.012C55.2003 30.53 52.1903 30.544 49.9923 30.544L49.8523 29.648C50.8743 29.648 52.0783 29.648 53.3383 29.606V27.548H50.7763V21.906ZM58.6863 33.036V20.758H59.7363V33.036H58.6863ZM70.3907 20.772H71.4407V25.84H73.4707V26.722H71.4407V33.022H70.3907V20.772ZM61.9627 23.614V22.746H65.0987V20.912H66.1627V22.746H69.2147V23.614H61.9627ZM62.6767 27.464C62.6767 25.812 63.9367 24.664 65.6447 24.664C67.3667 24.664 68.6127 25.812 68.6127 27.464C68.6127 29.116 67.3667 30.264 65.6447 30.264C63.9367 30.264 62.6767 29.116 62.6767 27.464ZM63.6847 27.464C63.6847 28.584 64.4967 29.382 65.6447 29.382C66.7787 29.382 67.6047 28.584 67.6047 27.464C67.6047 26.344 66.7787 25.532 65.6447 25.532C64.4967 25.532 63.6847 26.344 63.6847 27.464ZM77.503 21.85H78.553V24.076C78.553 26.316 80.079 28.57 81.843 29.396L81.213 30.236C79.827 29.55 78.623 28.08 78.049 26.316C77.489 28.178 76.271 29.746 74.843 30.46L74.199 29.592C75.977 28.738 77.503 26.4 77.503 24.076V21.85ZM83.201 33.036V20.758H84.251V33.036H83.201ZM87.0793 21.836H92.6373V22.956H95.5073V20.786H96.5573V29.718H95.5073V26.442H92.6373V27.548H87.0793V21.836ZM88.1013 26.694H91.6153V22.69H88.1013V26.694ZM88.7173 32.742V28.92H89.7673V31.874H96.8513V32.742H88.7173ZM92.6373 25.574H95.5073V23.824H92.6373V25.574ZM101.982 26.638H113.042V27.506H101.982V26.638ZM103.312 30.796C103.312 29.396 104.88 28.598 107.498 28.598C110.102 28.598 111.684 29.396 111.684 30.796C111.684 32.21 110.102 33.008 107.498 33.008C104.88 33.008 103.312 32.21 103.312 30.796ZM103.382 25.434V21.276H111.656V22.158H104.418V24.58H111.74V25.434H103.382ZM104.362 30.796C104.362 31.678 105.552 32.168 107.498 32.168C109.444 32.168 110.62 31.678 110.62 30.796C110.62 29.942 109.444 29.424 107.498 29.424C105.552 29.424 104.362 29.942 104.362 30.796ZM114.205 27.534H119.217V26.19H115.647V23.25H122.829V21.934H115.619V21.094H123.865V24.02H116.669V25.364H124.131V26.19H120.267V27.534H125.307V28.402H114.205V27.534ZM115.437 30.222V29.354H123.935V32.896H122.885V30.222H115.437ZM134.883 20.786H135.933V24.832H137.767V25.714H135.933V29.97H134.883V20.786ZM126.483 23.138V22.284H129.577V20.786H130.627V22.284H133.721V23.138H126.483ZM127.183 26.12C127.183 24.734 128.359 23.838 130.095 23.838C131.831 23.838 133.021 24.734 133.021 26.12C133.021 27.492 131.831 28.388 130.095 28.388C128.359 28.388 127.183 27.492 127.183 26.12ZM128.177 26.12C128.177 26.988 128.947 27.562 130.095 27.562C131.243 27.562 132.013 26.988 132.013 26.12C132.013 25.238 131.243 24.664 130.095 24.664C128.947 24.664 128.177 25.238 128.177 26.12ZM128.345 32.742V29.228H129.381V31.874H136.507V32.742H128.345ZM148.414 23.978H150.906V20.772H151.956V28.066H150.906V24.846H148.414V23.978ZM141.96 27.114C143.752 26.456 145.054 24.804 145.054 23.026V22.55H142.282V21.682H148.82V22.55H146.104V23.026C146.104 24.622 147.336 26.148 149.1 26.764L148.554 27.604C147.182 27.1 146.118 26.064 145.6 24.79C145.082 26.246 143.934 27.394 142.492 27.954L141.96 27.114ZM143.864 30.74C143.864 29.312 145.404 28.458 147.938 28.458C150.458 28.458 151.998 29.312 151.998 30.74C151.998 32.182 150.458 33.008 147.938 33.008C145.404 33.008 143.864 32.182 143.864 30.74ZM144.914 30.74C144.914 31.636 146.062 32.182 147.938 32.182C149.8 32.182 150.962 31.636 150.962 30.74C150.962 29.83 149.8 29.284 147.938 29.284C146.062 29.284 144.914 29.83 144.914 30.74ZM154.14 30.558H159.152V27.884H155.47V21.64H156.506V23.852H162.862V21.64H163.898V27.884H160.188V30.558H165.242V31.44H154.14V30.558ZM156.506 27.03H162.862V24.72H156.506V27.03ZM167.888 21.22H168.924V24.496H176.19V25.35H167.888V21.22ZM166.376 27.898V27.03H177.478V27.898H166.376ZM167.818 32.728V29.144H168.854V31.86H176.26V32.728H167.818ZM181.839 30.558H186.851V27.534H183.155V21.794H191.583V27.534H187.887V30.558H192.941V31.426H181.839V30.558ZM184.177 26.694H190.561V22.634H184.177V26.694ZM195.616 21.5H203.596V22.368H196.666V25.364H203.764V26.232H195.616V21.5ZM194.076 28.738V27.856H205.178V28.738H200.11V32.994H199.074V28.738H194.076ZM212.591 21.388H213.613V22.746C213.613 24.426 214.887 25.952 216.623 26.582L216.091 27.408C214.733 26.904 213.655 25.854 213.123 24.552C212.605 25.98 211.513 27.1 210.071 27.646L209.525 26.806C211.345 26.148 212.591 24.538 212.591 22.662V21.388ZM211.107 29.676V28.822H219.031V33.022H217.981V29.676H211.107ZM217.981 28.192V20.772H219.031V24.034H220.865V24.916H219.031V28.192H217.981ZM231.141 20.772H232.149V33.022H231.141V20.772ZM221.635 29.774C223.315 28.752 224.309 26.512 224.309 24.258V23.096H221.943V22.228H227.557V23.096H225.331V24.258C225.331 26.386 226.283 28.528 227.949 29.494L227.305 30.264C226.115 29.536 225.261 28.206 224.827 26.638C224.407 28.332 223.511 29.788 222.279 30.558L221.635 29.774ZM226.619 26.064V25.196H228.691V21.066H229.671V32.378H228.691V26.064H226.619ZM234.977 21.948H241.179V22.802H236.027V26.078H241.235V26.946H238.561V29.382C239.765 29.326 240.955 29.256 242.089 29.116L242.173 29.886C239.485 30.292 236.545 30.362 234.207 30.348L234.067 29.466C235.131 29.466 236.307 29.452 237.511 29.41V26.946H234.977V21.948ZM242.901 33.036V20.758H243.951V33.036H242.901ZM249.496 21.724C251.162 21.724 252.366 23.166 252.52 25.476H255.264V20.758H256.3V33.036H255.264V26.316H252.52C252.422 28.724 251.19 30.25 249.496 30.25C247.718 30.25 246.458 28.584 246.458 25.98C246.458 23.376 247.718 21.724 249.496 21.724ZM247.452 25.98C247.452 27.982 248.292 29.312 249.496 29.312C250.714 29.312 251.54 27.982 251.54 25.98C251.54 23.978 250.714 22.662 249.496 22.662C248.292 22.662 247.452 23.978 247.452 25.98ZM261.71 27.114H266.722V25.616H263.194V21.066H264.23V22.48H270.278V21.066H271.328V25.616H267.758V27.114H272.77V27.982H261.71V27.114ZM262.942 30.082V29.228H271.398V33.022H270.362V30.082H262.942ZM264.23 24.776H270.278V23.306H264.23V24.776ZM275.361 21.584H283.551V22.648C283.551 23.81 283.551 25.07 283.201 26.848H285.021V27.73H279.995V33.05H278.931V27.73H273.947V26.848H282.137C282.515 25.098 282.515 23.796 282.515 22.648V22.438H275.361V21.584ZM297.852 20.73H298.902V23.712H300.75V24.594H298.902V27.506H297.852V20.73ZM289.452 22.718V21.892H292.546V20.632H293.596V21.892H296.69V22.718H289.452ZM290.152 25.308C290.152 24.062 291.3 23.292 293.064 23.292C294.828 23.292 295.99 24.062 295.99 25.308C295.99 26.54 294.828 27.31 293.064 27.31C291.3 27.31 290.152 26.54 290.152 25.308ZM291.146 25.308C291.146 26.05 291.902 26.54 293.064 26.54C294.226 26.54 294.982 26.05 294.982 25.308C294.982 24.552 294.226 24.076 293.064 24.076C291.902 24.076 291.146 24.552 291.146 25.308ZM291.16 28.948V28.15H298.902V30.838H292.224V32.056H299.35V32.882H291.202V30.068H297.866V28.948H291.16ZM309.871 21.22H310.963V21.92C310.963 23.656 313.231 25.154 315.387 25.476L314.953 26.316C313.091 25.994 311.215 24.93 310.431 23.432C309.661 24.958 307.771 25.994 305.881 26.316L305.447 25.476C307.631 25.154 309.871 23.698 309.871 21.92V21.22ZM304.873 28.57V27.702H315.947V28.57H310.907V33.022H309.871V28.57H304.873ZM321.749 27.968H322.743V29.522H324.983V27.968H325.963V32.854H321.749V27.968ZM320.545 24.132C320.545 22.452 321.847 21.318 323.681 21.318C325.333 21.318 326.579 22.242 326.789 23.67H329.351V20.772H330.401V27.254H329.351V24.538H326.803C326.607 25.98 325.347 26.946 323.681 26.946C321.847 26.946 320.545 25.798 320.545 24.132ZM321.553 24.132C321.553 25.266 322.435 26.078 323.681 26.078C324.927 26.078 325.823 25.266 325.823 24.132C325.823 22.998 324.927 22.2 323.681 22.2C322.435 22.2 321.553 22.998 321.553 24.132ZM322.743 32.028H324.983V30.32H322.743V32.028ZM326.145 32.154C327.601 31.538 328.385 30.18 328.385 28.92V27.884H329.407V28.92C329.407 30.222 330.191 31.58 331.661 32.154L331.129 32.952C330.009 32.476 329.281 31.622 328.903 30.6C328.511 31.608 327.769 32.476 326.677 32.952L326.145 32.154ZM38.974 49.108H40.01V50.578H46.128V49.108H47.164V53.854H38.974V49.108ZM37.56 48.24V47.386H48.62V48.24H37.56ZM38.204 45.65C40.346 45.356 42.558 44.054 42.558 42.472V41.912H43.636V42.472C43.636 44.012 45.876 45.37 47.99 45.65L47.598 46.476C45.75 46.196 43.874 45.23 43.104 43.858C42.334 45.244 40.458 46.196 38.596 46.476L38.204 45.65ZM40.01 53H46.128V51.404H40.01V53ZM58.7563 41.772H59.7923V54.022H58.7563V41.772ZM50.5803 50.844V42.976H51.6303V49.934C53.4783 49.934 55.3963 49.794 57.4543 49.36L57.5943 50.256C55.4523 50.69 53.5203 50.844 51.5883 50.844H50.5803ZM70.3907 41.758H71.4407V46.63H73.4707V47.512H71.4407V54.036H70.3907V41.758ZM62.5787 50.97V42.976H68.2627V43.83H63.6147V50.074C65.8687 50.074 67.4227 50.004 69.2147 49.654L69.3407 50.55C67.4507 50.9 65.8547 50.97 63.5307 50.97H62.5787ZM21.2473 73.118C23.2493 71.172 26.2873 68.722 26.2873 66.888C26.2873 65.586 25.4613 64.662 24.2713 64.662C23.4173 64.662 22.5353 65.306 22.1293 66.23L21.2053 65.838C21.7373 64.62 23.0113 63.766 24.2713 63.766C26.0493 63.766 27.2953 65.054 27.2953 66.888C27.2953 69.016 24.5793 71.298 22.6193 73.118H27.4633V74.014H21.3873L21.2473 73.118ZM30.2236 72.782C30.6296 72.782 30.9096 73.062 30.9096 73.468C30.9096 73.888 30.6296 74.182 30.2236 74.182C29.8036 74.182 29.5096 73.888 29.5096 73.468C29.5096 73.062 29.8036 72.782 30.2236 72.782ZM37.602 64.088H40.696V62.702H41.746V64.088H44.84V64.942H37.602V64.088ZM38.302 67.812C38.302 66.468 39.464 65.6 41.214 65.6C42.964 65.6 44.14 66.468 44.14 67.812C44.14 69.156 42.964 70.01 41.214 70.01C39.464 70.01 38.302 69.156 38.302 67.812ZM39.128 71.97V71.102H47.052V75.022H46.002V71.97H39.128ZM39.296 67.812C39.296 68.638 40.066 69.198 41.214 69.198C42.362 69.198 43.132 68.638 43.132 67.812C43.132 66.972 42.362 66.426 41.214 66.426C40.066 66.426 39.296 66.972 39.296 67.812ZM46.002 70.43V62.772H47.052V66.174H48.886V67.056H47.052V70.43H46.002ZM50.9443 64.018H59.5403V65.376C59.5403 66.958 59.5403 68.54 59.1063 70.794L58.0703 70.668C58.4903 68.526 58.4903 66.916 58.4903 65.376V64.886H50.9443V64.018ZM49.7963 73.272V72.39H52.5543V68.33H53.5903V72.39H55.5923V68.33H56.6283V72.39H60.8703V73.272H49.7963ZM71.7692 65.978H74.2612V62.772H75.3112V70.066H74.2612V66.846H71.7692V65.978ZM65.3152 69.114C67.1072 68.456 68.4092 66.804 68.4092 65.026V64.55H65.6372V63.682H72.1752V64.55H69.4592V65.026C69.4592 66.622 70.6912 68.148 72.4552 68.764L71.9092 69.604C70.5372 69.1 69.4732 68.064 68.9552 66.79C68.4372 68.246 67.2892 69.394 65.8472 69.954L65.3152 69.114ZM67.2192 72.74C67.2192 71.312 68.7592 70.458 71.2932 70.458C73.8132 70.458 75.3532 71.312 75.3532 72.74C75.3532 74.182 73.8132 75.008 71.2932 75.008C68.7592 75.008 67.2192 74.182 67.2192 72.74ZM68.2692 72.74C68.2692 73.636 69.4172 74.182 71.2932 74.182C73.1552 74.182 74.3172 73.636 74.3172 72.74C74.3172 71.83 73.1552 71.284 71.2932 71.284C69.4172 71.284 68.2692 71.83 68.2692 72.74ZM77.4955 72.558H82.5075V69.884H78.8255V63.64H79.8615V65.852H86.2175V63.64H87.2535V69.884H83.5435V72.558H88.5975V73.44H77.4955V72.558ZM79.8615 69.03H86.2175V66.72H79.8615V69.03ZM101.96 62.786H103.01V71.844H101.96V68.54H99.0764V69.744H93.5744V63.584H94.6104V65.782H98.0404V63.584H99.0764V65.04H101.96V62.786ZM94.6104 68.876H98.0404V66.608H94.6104V68.876ZM95.1704 74.742V70.962H96.2204V73.874H103.304V74.742H95.1704ZM99.0764 67.672H101.96V65.908H99.0764V67.672ZM110.935 67.616H114.197V65.922H111.075C110.277 67.896 108.387 69.324 105.783 70.108L105.349 69.268C108.303 68.4 110.151 66.72 110.361 64.564H105.979V63.696H111.495C111.495 64.172 111.439 64.634 111.341 65.068H114.197V62.772H115.247V70.15H114.197V68.47H110.935V67.616ZM107.225 72.628C107.225 71.158 108.779 70.276 111.271 70.276C113.735 70.276 115.303 71.158 115.303 72.628C115.303 74.084 113.735 74.966 111.271 74.966C108.779 74.966 107.225 74.084 107.225 72.628ZM108.261 72.628C108.261 73.552 109.437 74.126 111.271 74.126C113.105 74.126 114.267 73.552 114.267 72.628C114.267 71.676 113.105 71.116 111.271 71.116C109.437 71.116 108.261 71.676 108.261 72.628ZM117.431 69.24H128.491V70.094H117.431V69.24ZM118.663 65.628C118.663 64.102 120.343 63.192 122.961 63.192C125.579 63.192 127.259 64.102 127.259 65.628C127.259 67.154 125.579 68.064 122.961 68.064C120.343 68.064 118.663 67.154 118.663 65.628ZM118.873 74.756V71.2H119.923V73.888H127.273V74.756H118.873ZM119.741 65.628C119.741 66.608 121.015 67.21 122.961 67.21C124.921 67.21 126.181 66.608 126.181 65.628C126.181 64.648 124.921 64.06 122.961 64.06C121.015 64.06 119.741 64.648 119.741 65.628ZM136.338 63.248V64.186H134.728V73.734H136.338V74.686H133.776V63.248H136.338ZM138.32 64.004H143.906V71.9H138.32V64.004ZM139.342 71.046H142.884V64.858H139.342V71.046ZM146.16 75.022V62.772H147.21V67.7H149.24V68.582H147.21V75.022H146.16ZM158.985 62.758H160.035V75.036H158.985V62.758ZM150.487 67.98C150.487 65.376 151.775 63.724 153.595 63.724C155.401 63.724 156.689 65.376 156.689 67.98C156.689 70.584 155.401 72.25 153.595 72.25C151.775 72.25 150.487 70.584 150.487 67.98ZM151.509 67.98C151.509 69.982 152.363 71.312 153.595 71.312C154.813 71.312 155.681 69.982 155.681 67.98C155.681 65.978 154.813 64.662 153.595 64.662C152.363 64.662 151.509 65.978 151.509 67.98ZM171.697 62.772H172.705V75.022H171.697V62.772ZM162.135 71.088C162.513 71.088 162.947 71.088 163.423 71.074V65.208H162.387V64.34H167.987V65.208H166.937V70.934C167.399 70.892 167.847 70.85 168.253 70.794L168.337 71.578C166.405 71.928 163.857 71.984 162.261 71.984L162.135 71.088ZM164.389 71.06C164.907 71.046 165.439 71.018 165.971 70.99V65.208H164.389V71.06ZM167.609 68.386V67.462H169.331V63.08H170.325V74.364H169.331V68.386H167.609ZM183.457 62.758H184.507V75.036H183.457V62.758ZM174.959 67.98C174.959 65.376 176.247 63.724 178.067 63.724C179.873 63.724 181.161 65.376 181.161 67.98C181.161 70.584 179.873 72.25 178.067 72.25C176.247 72.25 174.959 70.584 174.959 67.98ZM175.981 67.98C175.981 69.982 176.835 71.312 178.067 71.312C179.285 71.312 180.153 69.982 180.153 67.98C180.153 65.978 179.285 64.662 178.067 64.662C176.835 64.662 175.981 65.978 175.981 67.98ZM187.126 64.032H193.972V64.914H191.06V66.566C191.06 68.652 192.6 70.752 194.364 71.522L193.762 72.362C192.362 71.704 191.116 70.276 190.542 68.582C189.982 70.388 188.75 71.956 187.35 72.656L186.748 71.83C188.47 70.99 190.01 68.68 190.01 66.566V64.914H187.126V64.032ZM195.68 75.022V62.772H196.73V75.022H195.68ZM199.334 63.248H201.896V74.686H199.334V73.734H200.944V64.186H199.334V63.248ZM215.477 62.772H216.527V67.84H218.557V68.722H216.527V75.022H215.477V62.772ZM207.049 65.614V64.746H210.185V62.912H211.249V64.746H214.301V65.614H207.049ZM207.763 69.464C207.763 67.812 209.023 66.664 210.731 66.664C212.453 66.664 213.699 67.812 213.699 69.464C213.699 71.116 212.453 72.264 210.731 72.264C209.023 72.264 207.763 71.116 207.763 69.464ZM208.771 69.464C208.771 70.584 209.583 71.382 210.731 71.382C211.865 71.382 212.691 70.584 212.691 69.464C212.691 68.344 211.865 67.532 210.731 67.532C209.583 67.532 208.771 68.344 208.771 69.464ZM227.811 62.758H228.861V66.44H230.695V67.308H228.861V71.634H227.811V62.758ZM219.957 69.464V63.822H225.347V64.704H220.993V68.582C223.443 68.582 224.843 68.512 226.467 68.176L226.593 69.03C224.885 69.366 223.443 69.464 220.895 69.464H219.957ZM221.273 74.742V70.752H222.309V73.874H229.421V74.742H221.273ZM238.262 63.248V64.186H236.652V73.734H238.262V74.686H235.7V63.248H238.262ZM239.768 64.088H242.862V62.702H243.912V64.088H247.006V64.942H239.768V64.088ZM240.468 67.812C240.468 66.468 241.63 65.6 243.38 65.6C245.13 65.6 246.306 66.468 246.306 67.812C246.306 69.156 245.13 70.01 243.38 70.01C241.63 70.01 240.468 69.156 240.468 67.812ZM241.294 71.97V71.102H249.218V75.022H248.168V71.97H241.294ZM241.462 67.812C241.462 68.638 242.232 69.198 243.38 69.198C244.528 69.198 245.298 68.638 245.298 67.812C245.298 66.972 244.528 66.426 243.38 66.426C242.232 66.426 241.462 66.972 241.462 67.812ZM248.168 70.43V62.772H249.218V66.174H251.052V67.056H249.218V70.43H248.168ZM253.11 64.018H261.706V65.376C261.706 66.958 261.706 68.54 261.272 70.794L260.236 70.668C260.656 68.526 260.656 66.916 260.656 65.376V64.886H253.11V64.018ZM251.962 73.272V72.39H254.72V68.33H255.756V72.39H257.758V68.33H258.794V72.39H263.036V73.272H251.962ZM273.935 65.978H276.427V62.772H277.477V70.066H276.427V66.846H273.935V65.978ZM267.481 69.114C269.273 68.456 270.575 66.804 270.575 65.026V64.55H267.803V63.682H274.341V64.55H271.625V65.026C271.625 66.622 272.857 68.148 274.621 68.764L274.075 69.604C272.703 69.1 271.639 68.064 271.121 66.79C270.603 68.246 269.455 69.394 268.013 69.954L267.481 69.114ZM269.385 72.74C269.385 71.312 270.925 70.458 273.459 70.458C275.979 70.458 277.519 71.312 277.519 72.74C277.519 74.182 275.979 75.008 273.459 75.008C270.925 75.008 269.385 74.182 269.385 72.74ZM270.435 72.74C270.435 73.636 271.583 74.182 273.459 74.182C275.321 74.182 276.483 73.636 276.483 72.74C276.483 71.83 275.321 71.284 273.459 71.284C271.583 71.284 270.435 71.83 270.435 72.74ZM279.662 72.558H284.674V69.884H280.992V63.64H282.028V65.852H288.384V63.64H289.42V69.884H285.71V72.558H290.764V73.44H279.662V72.558ZM282.028 69.03H288.384V66.72H282.028V69.03ZM304.126 62.786H305.176V71.844H304.126V68.54H301.242V69.744H295.74V63.584H296.776V65.782H300.206V63.584H301.242V65.04H304.126V62.786ZM296.776 68.876H300.206V66.608H296.776V68.876ZM297.336 74.742V70.962H298.386V73.874H305.47V74.742H297.336ZM301.242 67.672H304.126V65.908H301.242V67.672ZM313.101 67.616H316.363V65.922H313.241C312.443 67.896 310.553 69.324 307.949 70.108L307.515 69.268C310.469 68.4 312.317 66.72 312.527 64.564H308.145V63.696H313.661C313.661 64.172 313.605 64.634 313.507 65.068H316.363V62.772H317.413V70.15H316.363V68.47H313.101V67.616ZM309.391 72.628C309.391 71.158 310.945 70.276 313.437 70.276C315.901 70.276 317.469 71.158 317.469 72.628C317.469 74.084 315.901 74.966 313.437 74.966C310.945 74.966 309.391 74.084 309.391 72.628ZM310.427 72.628C310.427 73.552 311.603 74.126 313.437 74.126C315.271 74.126 316.433 73.552 316.433 72.628C316.433 71.676 315.271 71.116 313.437 71.116C311.603 71.116 310.427 71.676 310.427 72.628ZM319.947 63.248H322.509V74.686H319.947V73.734H321.557V64.186H319.947V63.248ZM46.94 83.772H47.948V96.022H46.94V83.772ZM37.714 89.05C37.714 86.446 38.736 84.808 40.304 84.808C41.802 84.808 42.782 86.236 42.908 88.56H44.518V84.052H45.512V95.392H44.518V89.428H42.908C42.824 91.822 41.816 93.306 40.304 93.306C38.736 93.306 37.714 91.668 37.714 89.05ZM38.68 89.05C38.68 91.052 39.31 92.326 40.304 92.326C41.326 92.326 41.956 91.052 41.956 89.05C41.956 87.048 41.326 85.788 40.304 85.788C39.31 85.788 38.68 87.048 38.68 89.05ZM55.9003 87.972H58.7983V83.758H59.8343V96.036H58.7983V88.826H55.9003V87.972ZM49.7963 92.578C51.5463 91.696 52.9883 89.344 52.9883 87.076V84.836H54.0383V87.076C54.0383 89.288 55.4663 91.528 57.2163 92.354L56.6003 93.208C55.2143 92.494 54.0663 91.01 53.5203 89.26C52.9883 91.108 51.8263 92.676 50.4543 93.418L49.7963 92.578ZM73.6032 83.758H74.6672V88.77H76.6412V89.652H74.6672V96.022H73.6032V83.758ZM65.3572 92.858C68.5072 91.276 70.2152 88.868 70.4532 85.956H65.9172V85.088H71.5172C71.5172 88.546 69.8932 91.696 65.9452 93.67L65.3572 92.858ZM79.0215 84.024H80.0575V87.216H87.3095V88.084H79.0215V84.024ZM77.5095 90.408V89.54H88.5695V90.408H77.5095ZM78.8395 93.754C78.8395 92.34 80.4075 91.542 83.0255 91.542C85.6295 91.542 87.2115 92.34 87.2115 93.754C87.2115 95.168 85.6295 95.98 83.0255 95.98C80.4075 95.98 78.8395 95.168 78.8395 93.754ZM79.8895 93.754C79.8895 94.636 81.0795 95.14 83.0255 95.14C84.9715 95.14 86.1475 94.636 86.1475 93.754C86.1475 92.872 84.9715 92.368 83.0255 92.368C81.0795 92.368 79.8895 92.872 79.8895 93.754ZM98.1739 83.772H99.2239V86.908H101.058V87.804H99.2239V90.884H98.1739V83.772ZM89.7739 85.9V85.046H92.8679V83.646H93.9179V85.046H97.0119V85.9H89.7739ZM90.4739 88.63C90.4739 87.328 91.6359 86.488 93.3859 86.488C95.1359 86.488 96.3119 87.328 96.3119 88.63C96.3119 89.946 95.1359 90.786 93.3859 90.786C91.6359 90.786 90.4739 89.946 90.4739 88.63ZM91.4679 88.63C91.4679 89.442 92.2379 89.988 93.3859 89.988C94.5339 89.988 95.3039 89.442 95.3039 88.63C95.3039 87.832 94.5339 87.286 93.3859 87.286C92.2379 87.286 91.4679 87.832 91.4679 88.63ZM91.5519 95.854V91.43H92.5879V92.774H98.1879V91.43H99.2239V95.854H91.5519ZM92.5879 95H98.1879V93.586H92.5879V95ZM110.928 83.772H111.964V96.022H110.928V83.772ZM102.752 92.844V84.976H103.802V91.934C105.65 91.934 107.568 91.794 109.626 91.36L109.766 92.256C107.624 92.69 105.692 92.844 103.76 92.844H102.752ZM122.563 83.758H123.613V88.63H125.643V89.512H123.613V96.036H122.563V83.758ZM114.751 92.97V84.976H120.435V85.83H115.787V92.074C118.041 92.074 119.595 92.004 121.387 91.654L121.513 92.55C119.623 92.9 118.027 92.97 115.703 92.97H114.751ZM26.1893 110.778C27.0853 111.324 27.5753 112.304 27.5753 113.144C27.5753 114.866 26.2313 116.084 24.3133 116.084C22.4093 116.084 21.0653 114.866 21.0653 113.144H22.0733C22.0733 114.348 22.9973 115.188 24.3133 115.188C25.6433 115.188 26.5673 114.348 26.5673 113.158C26.5673 112.024 25.6433 111.226 24.3413 111.226H23.5993V110.302H24.3413C25.5593 110.302 26.4273 109.574 26.4273 108.538C26.4273 107.46 25.5873 106.704 24.3973 106.704C23.1933 106.704 22.3533 107.474 22.3533 108.566H21.3453C21.3453 106.942 22.6053 105.808 24.3973 105.808C26.1753 105.808 27.4353 106.942 27.4353 108.566C27.4353 109.322 27.0013 110.232 26.1893 110.778ZM30.2236 114.782C30.6296 114.782 30.9096 115.062 30.9096 115.468C30.9096 115.888 30.6296 116.182 30.2236 116.182C29.8036 116.182 29.5096 115.888 29.5096 115.468C29.5096 115.062 29.8036 114.782 30.2236 114.782ZM46.506 104.758H47.556V117.036H46.506V104.758ZM38.008 109.98C38.008 107.376 39.296 105.724 41.116 105.724C42.922 105.724 44.21 107.376 44.21 109.98C44.21 112.584 42.922 114.25 41.116 114.25C39.296 114.25 38.008 112.584 38.008 109.98ZM39.03 109.98C39.03 111.982 39.884 113.312 41.116 113.312C42.334 113.312 43.202 111.982 43.202 109.98C43.202 107.978 42.334 106.662 41.116 106.662C39.884 106.662 39.03 107.978 39.03 109.98ZM49.7963 110.862H52.5543V109.112C51.5743 108.72 51.0283 108.104 51.0283 107.278C51.0283 105.836 52.6803 105.01 55.3263 105.01C57.9723 105.01 59.6243 105.836 59.6243 107.278C59.6243 108.104 59.0783 108.72 58.1123 109.098V110.862H60.8563V111.702H49.7963V110.862ZM51.1403 114.824C51.1403 113.452 52.7083 112.668 55.3263 112.668C57.9443 112.668 59.5123 113.452 59.5123 114.824C59.5123 116.224 57.9443 117.008 55.3263 117.008C52.7083 117.008 51.1403 116.224 51.1403 114.824ZM52.1063 107.278C52.1063 108.174 53.3523 108.72 55.3263 108.72C57.3003 108.72 58.5463 108.174 58.5463 107.278C58.5463 106.368 57.3003 105.822 55.3263 105.822C53.3523 105.822 52.1063 106.368 52.1063 107.278ZM52.1903 114.824C52.1903 115.692 53.3663 116.182 55.3263 116.182C57.2723 116.182 58.4483 115.692 58.4483 114.824C58.4483 113.984 57.2723 113.48 55.3263 113.48C53.3663 113.48 52.1903 113.984 52.1903 114.824ZM53.5903 110.862H57.0763V109.392C56.5583 109.476 55.9703 109.532 55.3263 109.532C54.6823 109.532 54.1083 109.49 53.5903 109.392V110.862ZM65.8192 106.116H71.9792V106.746C71.9792 107.726 71.9792 109.336 71.6292 111.632L70.5932 111.548C70.9292 109.476 70.9572 107.964 70.9572 106.984H65.8192V106.116ZM65.1332 113.438C65.9312 113.438 66.8272 113.424 67.7652 113.41V109.63H68.8012V113.382C70.1592 113.326 71.5452 113.242 72.8052 113.088L72.8612 113.858C70.3132 114.264 67.4432 114.32 65.2732 114.32L65.1332 113.438ZM73.5752 117.022V104.772H74.6112V109.924H76.6132V110.806H74.6112V117.022H73.5752ZM84.0055 107.978H86.4975V104.772H87.5475V112.066H86.4975V108.846H84.0055V107.978ZM77.5515 111.114C79.3435 110.456 80.6455 108.804 80.6455 107.026V106.55H77.8735V105.682H84.4115V106.55H81.6955V107.026C81.6955 108.622 82.9275 110.148 84.6915 110.764L84.1455 111.604C82.7735 111.1 81.7095 110.064 81.1915 108.79C80.6735 110.246 79.5255 111.394 78.0835 111.954L77.5515 111.114ZM79.4555 114.74C79.4555 113.312 80.9955 112.458 83.5295 112.458C86.0495 112.458 87.5895 113.312 87.5895 114.74C87.5895 116.182 86.0495 117.008 83.5295 117.008C80.9955 117.008 79.4555 116.182 79.4555 114.74ZM80.5055 114.74C80.5055 115.636 81.6535 116.182 83.5295 116.182C85.3915 116.182 86.5535 115.636 86.5535 114.74C86.5535 113.83 85.3915 113.284 83.5295 113.284C81.6535 113.284 80.5055 113.83 80.5055 114.74ZM99.1119 104.772H100.12V117.022H99.1119V104.772ZM89.8859 110.05C89.8859 107.446 90.9079 105.808 92.4759 105.808C93.9739 105.808 94.9539 107.236 95.0799 109.56H96.6899V105.052H97.6839V116.392H96.6899V110.428H95.0799C94.9959 112.822 93.9879 114.306 92.4759 114.306C90.9079 114.306 89.8859 112.668 89.8859 110.05ZM90.8519 110.05C90.8519 112.052 91.4819 113.326 92.4759 113.326C93.4979 113.326 94.1279 112.052 94.1279 110.05C94.1279 108.048 93.4979 106.788 92.4759 106.788C91.4819 106.788 90.8519 108.048 90.8519 110.05ZM108.072 108.972H110.97V104.758H112.006V117.036H110.97V109.826H108.072V108.972ZM101.968 113.578C103.718 112.696 105.16 110.344 105.16 108.076V105.836H106.21V108.076C106.21 110.288 107.638 112.528 109.388 113.354L108.772 114.208C107.386 113.494 106.238 112.01 105.692 110.26C105.16 112.108 103.998 113.676 102.626 114.418L101.968 113.578ZM118.915 104.968H119.951V106.144H125.999V104.968H127.049V109H118.915V104.968ZM117.431 110.89V110.036H128.491V110.89H123.479V112.136H127.063V114.81H119.839V116.056H127.441V116.882H118.817V114.054H126.041V112.934H118.775V112.136H122.429V110.89H117.431ZM119.951 108.174H125.999V106.956H119.951V108.174ZM138.669 104.772H139.719V113.9H138.669V110.302H136.555V109.434H138.669V107.978H136.555V107.11H138.669V104.772ZM129.695 111.114C130.185 111.114 130.717 111.114 131.277 111.1V106.634H130.031V105.766H136.471V106.634H135.239V110.96C135.799 110.918 136.359 110.876 136.877 110.806L136.933 111.604C134.581 111.968 131.795 112.01 129.821 112.01L129.695 111.114ZM131.907 116.742V113.144H132.943V115.874H140.041V116.742H131.907ZM132.299 111.086C132.929 111.072 133.573 111.058 134.217 111.016V106.634H132.299V111.086ZM150.346 104.786H151.396V108.832H153.23V109.714H151.396V113.97H150.346V104.786ZM141.946 107.138V106.284H145.04V104.786H146.09V106.284H149.184V107.138H141.946ZM142.646 110.12C142.646 108.734 143.822 107.838 145.558 107.838C147.294 107.838 148.484 108.734 148.484 110.12C148.484 111.492 147.294 112.388 145.558 112.388C143.822 112.388 142.646 111.492 142.646 110.12ZM143.64 110.12C143.64 110.988 144.41 111.562 145.558 111.562C146.706 111.562 147.476 110.988 147.476 110.12C147.476 109.238 146.706 108.664 145.558 108.664C144.41 108.664 143.64 109.238 143.64 110.12ZM143.808 116.742V113.228H144.844V115.874H151.97V116.742H143.808ZM163.877 107.866H166.355V104.772H167.405V111.94H166.355V108.734H163.877V107.866ZM157.409 110.988C159.201 110.344 160.503 108.72 160.503 106.956V106.438H157.745V105.57H164.283V106.438H161.553V106.942C161.553 108.538 162.799 110.078 164.563 110.694L164.017 111.534C162.645 111.03 161.581 109.98 161.063 108.706C160.545 110.134 159.397 111.268 157.955 111.828L157.409 110.988ZM159.481 116.854V112.556H167.405V116.854H159.481ZM160.517 116H166.383V113.396H160.517V116ZM178.549 104.758H179.599V117.036H178.549V104.758ZM170.051 109.98C170.051 107.376 171.339 105.724 173.159 105.724C174.965 105.724 176.253 107.376 176.253 109.98C176.253 112.584 174.965 114.25 173.159 114.25C171.339 114.25 170.051 112.584 170.051 109.98ZM171.073 109.98C171.073 111.982 171.927 113.312 173.159 113.312C174.377 113.312 175.245 111.982 175.245 109.98C175.245 107.978 174.377 106.662 173.159 106.662C171.927 106.662 171.073 107.978 171.073 109.98ZM188.16 112.332H189.168V113.004C189.168 114.11 189.756 115.272 190.904 115.944C192.094 115.202 192.696 113.956 192.696 113.004V112.332H193.718V113.004C193.718 114.278 194.656 115.538 196.196 116.07L195.678 116.854C194.474 116.42 193.62 115.552 193.186 114.53C192.822 115.524 192.08 116.476 190.946 116.966C189.77 116.504 189.014 115.608 188.65 114.572C188.216 115.552 187.376 116.406 186.214 116.854L185.682 116.07C187.222 115.51 188.16 114.18 188.16 113.004V112.332ZM185.36 108.356C185.36 106.662 186.69 105.5 188.538 105.5C190.386 105.5 191.716 106.662 191.716 108.356C191.716 110.036 190.386 111.184 188.538 111.184C186.69 111.184 185.36 110.036 185.36 108.356ZM186.382 108.356C186.382 109.518 187.292 110.316 188.538 110.316C189.798 110.316 190.694 109.518 190.694 108.356C190.694 107.194 189.798 106.382 188.538 106.382C187.292 106.382 186.382 107.194 186.382 108.356ZM194.04 111.786V104.786H195.104V111.786H194.04ZM202.832 105.556C205.38 105.556 207.27 106.9 207.27 108.916C207.27 110.946 205.38 112.276 202.832 112.276C200.298 112.276 198.394 110.946 198.394 108.916C198.394 106.9 200.298 105.556 202.832 105.556ZM197.302 115.37V114.488H208.404V115.37H197.302ZM199.402 108.916C199.402 110.414 200.872 111.422 202.832 111.422C204.806 111.422 206.262 110.414 206.262 108.916C206.262 107.432 204.806 106.41 202.832 106.41C200.872 106.41 199.402 107.432 199.402 108.916ZM216.091 106.27H218.555V104.772H219.605V111.968H218.555V109.546H216.091V108.692H218.555V107.138H216.091V106.27ZM209.581 110.834C211.401 110.148 212.633 108.454 212.633 106.494V105.206H213.655V106.494C213.655 108.286 214.901 109.952 216.637 110.638L216.063 111.464C214.733 110.918 213.683 109.826 213.165 108.468C212.647 109.938 211.569 111.1 210.141 111.674L209.581 110.834ZM210.225 116.084C211.765 115.51 212.703 114.18 212.703 112.99V112.402H213.711V112.99C213.711 114.096 214.299 115.272 215.447 115.958C216.623 115.216 217.225 113.942 217.225 112.99V112.402H218.261V112.99C218.261 114.264 219.171 115.552 220.739 116.084L220.207 116.868C219.003 116.434 218.149 115.566 217.729 114.53C217.351 115.524 216.609 116.49 215.461 116.98C214.285 116.504 213.543 115.594 213.179 114.544C212.745 115.538 211.905 116.406 210.743 116.868L210.225 116.084ZM230.133 104.758H231.183V109.63H233.213V110.512H231.183V117.036H230.133V104.758ZM222.321 113.97V105.976H228.005V106.83H223.357V113.074C225.611 113.074 227.165 113.004 228.957 112.654L229.083 113.55C227.193 113.9 225.597 113.97 223.273 113.97H222.321ZM234.585 105.836H240.143V106.956H243.013V104.786H244.063V113.718H243.013V110.442H240.143V111.548H234.585V105.836ZM235.607 110.694H239.121V106.69H235.607V110.694ZM236.223 116.742V112.92H237.273V115.874H244.357V116.742H236.223ZM240.143 109.574H243.013V107.824H240.143V109.574ZM247.816 114.936L247.046 117.526H246.304L246.724 114.936H247.816ZM256.746 105.248V106.186H255.136V115.734H256.746V116.686H254.184V105.248H256.746ZM258.728 106.004H264.314V113.9H258.728V106.004ZM259.75 113.046H263.292V106.858H259.75V113.046ZM266.568 117.022V104.772H267.618V109.7H269.648V110.582H267.618V117.022H266.568ZM279.393 104.758H280.443V117.036H279.393V104.758ZM270.895 109.98C270.895 107.376 272.183 105.724 274.003 105.724C275.809 105.724 277.097 107.376 277.097 109.98C277.097 112.584 275.809 114.25 274.003 114.25C272.183 114.25 270.895 112.584 270.895 109.98ZM271.917 109.98C271.917 111.982 272.771 113.312 274.003 113.312C275.221 113.312 276.089 111.982 276.089 109.98C276.089 107.978 275.221 106.662 274.003 106.662C272.771 106.662 271.917 107.978 271.917 109.98ZM292.105 104.772H293.113V117.022H292.105V104.772ZM282.543 113.088C282.921 113.088 283.355 113.088 283.831 113.074V107.208H282.795V106.34H288.395V107.208H287.345V112.934C287.807 112.892 288.255 112.85 288.661 112.794L288.745 113.578C286.813 113.928 284.265 113.984 282.669 113.984L282.543 113.088ZM284.797 113.06C285.315 113.046 285.847 113.018 286.379 112.99V107.208H284.797V113.06ZM288.017 110.386V109.462H289.739V105.08H290.733V116.364H289.739V110.386H288.017ZM303.865 104.758H304.915V117.036H303.865V104.758ZM295.367 109.98C295.367 107.376 296.655 105.724 298.475 105.724C300.281 105.724 301.569 107.376 301.569 109.98C301.569 112.584 300.281 114.25 298.475 114.25C296.655 114.25 295.367 112.584 295.367 109.98ZM296.389 109.98C296.389 111.982 297.243 113.312 298.475 113.312C299.693 113.312 300.561 111.982 300.561 109.98C300.561 107.978 299.693 106.662 298.475 106.662C297.243 106.662 296.389 107.978 296.389 109.98ZM307.534 106.032H314.38V106.914H311.468V108.566C311.468 110.652 313.008 112.752 314.772 113.522L314.17 114.362C312.77 113.704 311.524 112.276 310.95 110.582C310.39 112.388 309.158 113.956 307.758 114.656L307.156 113.83C308.878 112.99 310.418 110.68 310.418 108.566V106.914H307.534V106.032ZM316.088 117.022V104.772H317.138V117.022H316.088ZM319.742 105.248H322.304V116.686H319.742V115.734H321.352V106.186H319.742V105.248ZM45.918 125.772H46.968V130.84H48.998V131.722H46.968V138.022H45.918V125.772ZM37.49 128.614V127.746H40.626V125.912H41.69V127.746H44.742V128.614H37.49ZM38.204 132.464C38.204 130.812 39.464 129.664 41.172 129.664C42.894 129.664 44.14 130.812 44.14 132.464C44.14 134.116 42.894 135.264 41.172 135.264C39.464 135.264 38.204 134.116 38.204 132.464ZM39.212 132.464C39.212 133.584 40.024 134.382 41.172 134.382C42.306 134.382 43.132 133.584 43.132 132.464C43.132 131.344 42.306 130.532 41.172 130.532C40.024 130.532 39.212 131.344 39.212 132.464ZM58.2523 125.758H59.3023V129.44H61.1363V130.308H59.3023V134.634H58.2523V125.758ZM50.3983 132.464V126.822H55.7883V127.704H51.4343V131.582C53.8843 131.582 55.2843 131.512 56.9083 131.176L57.0343 132.03C55.3263 132.366 53.8843 132.464 51.3363 132.464H50.3983ZM51.7143 137.742V133.752H52.7503V136.874H59.8623V137.742H51.7143ZM68.7032 126.248V127.186H67.0932V136.734H68.7032V137.686H66.1412V126.248H68.7032ZM71.3434 127.018H79.8834V128.236C79.8834 129.748 79.8834 131.414 79.4494 133.878L78.3854 133.752C78.8334 131.414 78.8334 129.706 78.8334 128.236V127.886H71.3434V127.018ZM70.1674 136.272V135.39H74.5214V130.994H75.5574V135.39H81.2414V136.272H70.1674ZM91.6998 125.772H92.7078V132.996H91.6998V129.748H90.0198V132.926H89.0258V126.01H90.0198V128.88H91.6998V125.772ZM82.4738 132.352C85.0078 131.316 86.4358 129.636 86.6318 127.55H82.9638V126.682H87.7238C87.7238 129.594 86.0858 131.82 83.0058 133.136L82.4738 132.352ZM84.5178 134.452V133.584H92.7078V138.022H91.6578V134.452H84.5178ZM99.6101 128.894H101.556V126.01H102.55V134.62H101.556V129.762H99.6101V128.894ZM94.6821 132.38C96.2501 131.624 97.2161 129.916 97.2161 128.46V126.64H98.2241V128.46C98.2241 129.916 99.1341 131.386 100.66 132.072L100.072 132.87C98.9521 132.352 98.1541 131.414 97.7341 130.294C97.3001 131.526 96.4321 132.618 95.2701 133.178L94.6821 132.38ZM96.9781 137.742V133.836H98.0281V136.874H105.322V137.742H96.9781ZM103.95 134.956V125.772H104.944V134.956H103.95ZM115.892 125.758H116.928V138.036H115.892V131.288H113.302V130.434H115.892V125.758ZM107.436 135.082V126.906H113.092V127.774H108.472V130.336H112.546V131.19H108.472V134.2C110.74 134.2 112.182 134.144 113.862 133.822L113.974 134.69C112.21 134.998 110.726 135.082 108.36 135.082H107.436ZM119.463 126.248H122.025V137.686H119.463V136.734H121.073V127.186H119.463V126.248ZM133.401 125.772H134.409V138.022H133.401V125.772ZM124.175 131.05C124.175 128.446 125.197 126.808 126.765 126.808C128.263 126.808 129.243 128.236 129.369 130.56H130.979V126.052H131.973V137.392H130.979V131.428H129.369C129.285 133.822 128.277 135.306 126.765 135.306C125.197 135.306 124.175 133.668 124.175 131.05ZM125.141 131.05C125.141 133.052 125.771 134.326 126.765 134.326C127.787 134.326 128.417 133.052 128.417 131.05C128.417 129.048 127.787 127.788 126.765 127.788C125.771 127.788 125.141 129.048 125.141 131.05ZM142.361 129.972H145.259V125.758H146.295V138.036H145.259V130.826H142.361V129.972ZM136.257 134.578C138.007 133.696 139.449 131.344 139.449 129.076V126.836H140.499V129.076C140.499 131.288 141.927 133.528 143.677 134.354L143.061 135.208C141.675 134.494 140.527 133.01 139.981 131.26C139.449 133.108 138.287 134.676 136.915 135.418L136.257 134.578ZM160.722 125.786H161.772V134.83H160.722V131.498H157.586C157.026 132.226 156.116 132.66 155.052 132.66C153.246 132.66 151.916 131.414 151.916 129.622C151.916 127.816 153.246 126.556 155.052 126.556C156.102 126.556 156.998 126.99 157.558 127.704H160.722V125.786ZM152.91 129.622C152.91 130.868 153.82 131.75 155.052 131.75C156.27 131.75 157.194 130.868 157.194 129.622C157.194 128.376 156.27 127.494 155.052 127.494C153.82 127.494 152.91 128.376 152.91 129.622ZM153.974 137.742V133.892H155.024V136.874H162.122V137.742H153.974ZM158.034 128.572C158.146 128.894 158.202 129.244 158.202 129.622C158.202 129.986 158.146 130.322 158.048 130.63H160.722V128.572H158.034ZM164.488 126.514H169.99V129.86H165.552V131.68C167.708 131.68 169.29 131.61 171.194 131.274L171.292 132.156C169.346 132.478 167.708 132.548 165.468 132.548H164.516V129.034H168.954V127.368H164.488V126.514ZM165.524 134.746V133.878H173.462V138.022H172.412V134.746H165.524ZM172.412 133.22V125.786H173.462V128.936H175.296V129.818H173.462V133.22H172.412ZM181.723 125.996C184.411 125.996 186.021 126.738 186.021 128.11C186.021 129.482 184.411 130.238 181.723 130.238C179.035 130.238 177.425 129.482 177.425 128.11C177.425 126.738 179.035 125.996 181.723 125.996ZM176.193 131.946V131.092H187.253V131.946H176.193ZM177.537 133.836V133.024H185.825V135.74H178.601V137.056H186.203V137.882H177.579V134.97H184.803V133.836H177.537ZM178.503 128.11C178.503 128.964 179.707 129.44 181.723 129.44C183.739 129.44 184.943 128.964 184.943 128.11C184.943 127.27 183.739 126.78 181.723 126.78C179.707 126.78 178.503 127.27 178.503 128.11ZM200.112 125.772H201.162V128.6H202.996V129.482H201.162V132.702H200.112V125.772ZM192.272 131.736V126.388H193.322V130.854C195.058 130.854 196.864 130.728 198.838 130.322L198.964 131.176C196.892 131.61 195.058 131.736 193.238 131.736H192.272ZM193.476 137.84V133.374H201.162V137.84H193.476ZM194.498 136.986H200.14V134.214H194.498V136.986ZM210.038 127.088C210.038 127.788 209.982 128.474 209.842 129.146H212.88V125.758H213.916V138.008H212.88V133.29H209.45V132.422H212.88V130H209.632C208.932 132.282 207.322 134.27 204.452 135.684L203.906 134.858C207.14 133.262 208.764 130.868 208.988 127.956H204.424V127.088H210.038ZM216.128 132.786H227.202V133.654H222.162V138.022H221.126V133.654H216.128V132.786ZM216.8 130.868C218.886 130.56 221.084 129.16 221.084 127.508V127.41H217.178V126.556H226.124V127.41H222.246V127.508C222.246 129.16 224.444 130.56 226.53 130.868L226.124 131.722C224.262 131.4 222.4 130.364 221.672 128.88C220.93 130.364 219.068 131.4 217.206 131.722L216.8 130.868ZM233.181 130.182H235.253V126.052H236.233V137.392H235.253V131.064H233.181V130.182ZM228.225 134.578C229.891 133.598 230.941 131.4 230.941 129.3V126.948H231.949V129.272C231.949 131.218 232.915 133.318 234.525 134.284L233.909 135.096C232.733 134.396 231.893 133.066 231.459 131.582C231.011 133.206 230.101 134.62 228.883 135.362L228.225 134.578ZM237.745 138.022V125.772H238.753V138.022H237.745ZM240.601 135.558H243.359V132.212C242.323 131.68 241.693 130.798 241.693 129.692C241.693 127.788 243.555 126.556 246.131 126.556C248.735 126.556 250.569 127.788 250.569 129.692C250.569 130.784 249.953 131.652 248.945 132.198V135.558H251.703V136.426H240.601V135.558ZM242.715 129.692C242.715 131.078 244.143 131.988 246.131 131.988C248.119 131.988 249.561 131.078 249.561 129.692C249.561 128.306 248.119 127.396 246.131 127.396C244.143 127.396 242.715 128.306 242.715 129.692ZM244.395 135.558H247.895V132.604C247.363 132.744 246.775 132.814 246.131 132.814C245.501 132.814 244.927 132.744 244.395 132.604V135.558Z" fill="#575757"/>
</svg>
