<svg width="24" height="24" viewBox="0 0 24 24" fill="none" xmlns="http://www.w3.org/2000/svg">
<path d="M21 12C21 16.9706 16.9706 21 12 21C7.02944 21 3 16.9706 3 12C3 7.02944 7.02944 3 12 3C16.9706 3 21 7.02944 21 12Z" fill="#5061FF"/>
<path fill-rule="evenodd" clip-rule="evenodd" d="M15.5356 9.87849C15.9261 9.48797 15.9261 8.8548 15.5356 8.46428C15.145 8.07375 14.5119 8.07375 14.1214 8.46428L12 10.5856L9.87868 8.46424C9.48816 8.07372 8.85499 8.07372 8.46447 8.46424C8.07394 8.85477 8.07394 9.48793 8.46447 9.87846L10.5858 11.9998L8.4645 14.1211C8.07397 14.5117 8.07397 15.1448 8.4645 15.5353C8.85502 15.9259 9.48819 15.9259 9.87871 15.5353L12 13.414L14.1213 15.5353C14.5118 15.9258 15.145 15.9258 15.5355 15.5353C15.9261 15.1448 15.9261 14.5116 15.5355 14.1211L13.4142 11.9998L15.5356 9.87849Z" fill="white"/>
</svg>
