<svg width="24" height="24" viewBox="0 0 24 24" fill="none" xmlns="http://www.w3.org/2000/svg">
<path fill-rule="evenodd" clip-rule="evenodd" d="M11.3756 15.0737C11.5636 14.9866 11.7347 14.8671 11.8812 14.7206L19.4833 7.11851C20.1722 6.42968 20.1722 5.31287 19.4833 4.62404C18.7945 3.93521 17.6777 3.93521 16.9889 4.62404L9.38676 12.2261C9.24027 12.3726 9.12074 12.5438 9.03363 12.7317C8.8566 13.1138 8.82628 13.4992 8.9042 13.8496L8.86229 13.9334C8.43251 14.7929 9.34437 15.7048 10.2039 15.275L10.3217 15.2161C10.6548 15.2769 11.0167 15.2401 11.3756 15.0737Z" fill="white"/>
<path d="M17.6125 8.98926L15.1181 6.49479L15.7417 5.87117L18.2362 8.36564L17.6125 8.98926Z" fill="#D3D8FF"/>
<path fill-rule="evenodd" clip-rule="evenodd" d="M12 4H8C5.79086 4 4 5.79086 4 8V16C4 18.2091 5.79086 20 8 20H16C18.2091 20 20 18.2091 20 16V13V12.9999C19.9999 12.4476 19.5522 12 19 12C18.4478 12 18.0001 12.4476 18 12.9999V13V16C18 17.1046 17.1046 18 16 18H8C6.89543 18 6 17.1046 6 16V8C6 6.89543 6.89543 6 8 6H12C12.5523 6 13 5.55228 13 5C13 4.44772 12.5523 4 12 4Z" fill="white"/>
</svg>
