<svg width="20" height="20" viewBox="0 0 20 20" fill="none" xmlns="http://www.w3.org/2000/svg">
<path fill-rule="evenodd" clip-rule="evenodd" d="M10 7.35875L8.75246 5.95052C8.24629 5.37915 7.44547 5.00065 6.625 5.00065C5.18329 5.00065 4.16667 6.05692 4.16667 7.33035C4.16667 8.19081 4.57584 9.29823 5.60443 10.7087C6.61749 12.0978 8.11187 13.6188 10 15.2784C11.8881 13.6188 13.3825 12.0978 14.3956 10.7087C15.4242 9.29823 15.8333 8.19081 15.8333 7.33035C15.8333 6.05692 14.8167 5.00065 13.375 5.00065C12.5545 5.00065 11.7537 5.37915 11.2475 5.95052L10 7.35875ZM9.22246 4.15652C8.47951 3.63994 7.5659 3.33398 6.625 3.33398C4.315 3.33398 2.5 5.08512 2.5 7.33035C2.5 10.0697 5.05 13.1482 8.9125 16.5415C9.53392 17.0896 10.4661 17.0896 11.0875 16.5415C14.95 13.1482 17.5 10.0697 17.5 7.33035C17.5 5.08512 15.685 3.33398 13.375 3.33398C12.4341 3.33398 11.5205 3.63994 10.7775 4.15652C10.49 4.35643 10.2281 4.58787 10 4.84534C9.77191 4.58787 9.50996 4.35643 9.22246 4.15652Z" fill="#5061FF"/>
</svg>
