<svg width="20" height="21" viewBox="0 0 20 21" fill="none" xmlns="http://www.w3.org/2000/svg">
<g clip-path="url(#clip0_1496_6537)">
<path fill-rule="evenodd" clip-rule="evenodd" d="M14.8492 7.42969C15.3959 6.88296 15.3959 5.99653 14.8492 5.44979C14.3025 4.90306 13.416 4.90306 12.8693 5.44979L9.89946 8.41964L6.92957 5.44975C6.38283 4.90301 5.4964 4.90301 4.94967 5.44975C4.40293 5.99648 4.40293 6.88291 4.94967 7.42965L7.91956 10.3995L4.94971 13.3694C4.40298 13.9161 4.40298 14.8026 4.94971 15.3493C5.49645 15.896 6.38288 15.896 6.92961 15.3493L9.89946 12.3794L12.8693 15.3492C13.416 15.896 14.3024 15.896 14.8492 15.3492C15.3959 14.8025 15.3959 13.9161 14.8492 13.3693L11.8794 10.3995L14.8492 7.42969Z" fill="#A3A3A3"/>
</g>
<defs>
<clipPath id="clip0_1496_6537">
<rect width="20" height="20" fill="white" transform="translate(0 0.5)"/>
</clipPath>
</defs>
</svg>
