<svg width="20" height="21" viewBox="0 0 20 21" fill="none" xmlns="http://www.w3.org/2000/svg">
<rect y="0.5" width="20" height="20" rx="10" fill="#F4F5FF"/>
<path fill-rule="evenodd" clip-rule="evenodd" d="M6.11111 5.5C4.39289 5.5 3 6.97029 3 8.78399V12.068C3 13.8817 4.39289 15.352 6.11111 15.352H8.2038L9.63021 17.3079C9.81702 17.564 10.183 17.564 10.3698 17.3079L11.7962 15.352H13.8889C15.6071 15.352 17 13.8817 17 12.068V8.78399C17 6.97029 15.6071 5.5 13.8889 5.5H6.11111ZM10.7778 12.068C10.7778 12.5214 10.4296 12.889 10 12.889L6.11111 12.889C5.68156 12.889 5.33333 12.5214 5.33333 12.068C5.33333 11.6145 5.68156 11.247 6.11111 11.247L10 11.247C10.4296 11.247 10.7778 11.6145 10.7778 12.068ZM12.3333 9.60498C12.7629 9.60498 13.1111 9.23741 13.1111 8.78399C13.1111 8.33056 12.7629 7.96299 12.3333 7.96299L6.11111 7.96299C5.68156 7.96299 5.33333 8.33056 5.33333 8.78399C5.33333 9.23741 5.68156 9.60498 6.11111 9.60498L12.3333 9.60498Z" fill="#5061FF"/>
</svg>
