<svg width="24" height="24" viewBox="0 0 24 24" fill="none" xmlns="http://www.w3.org/2000/svg">
<rect width="24" height="24" rx="4" fill="#F4F5FF"/>
<path fill-rule="evenodd" clip-rule="evenodd" d="M11.9504 3.99993C9.4742 3.99993 7.41841 5.79995 7.0202 8.16287H5C5.41359 4.69155 8.36768 2 11.9504 2C15.5332 2 18.4874 4.69166 18.9009 8.16309L18.8713 8.16287H16.8806C16.4824 5.79995 14.4267 3.99993 11.9504 3.99993Z" fill="#A5ADFF"/>
<path fill-rule="evenodd" clip-rule="evenodd" d="M4 9C4 7.89543 4.89543 7 6 7H18C19.1046 7 20 7.89543 20 9V19.1631C20 20.2677 19.1046 21.1631 18 21.1631H6C4.89543 21.1631 4 20.2677 4 19.1631V9ZM13 15.7324C13.5978 15.3866 14 14.7403 14 14C14 12.8954 13.1046 12 12 12C10.8954 12 10 12.8954 10 14C10 14.7403 10.4022 15.3866 11 15.7324V18C11 18.5523 11.4477 19 12 19C12.5523 19 13 18.5523 13 18V15.7324Z" fill="#5061FF"/>
</svg>
