<svg width="24" height="24" viewBox="0 0 24 24" fill="none" xmlns="http://www.w3.org/2000/svg">
<rect width="24" height="24" rx="4" fill="#F4F5FF"/>
<path d="M21 12C21 16.9706 16.9706 21 12 21C7.02944 21 3 16.9706 3 12C3 7.02944 7.02944 3 12 3C16.9706 3 21 7.02944 21 12Z" fill="#5061FF"/>
<path fill-rule="evenodd" clip-rule="evenodd" d="M15.5356 9.87947C15.9261 9.48894 15.9261 8.85578 15.5356 8.46525C15.145 8.07473 14.5119 8.07473 14.1214 8.46525L12 10.5866L9.87868 8.46522C9.48816 8.0747 8.85499 8.0747 8.46447 8.46522C8.07394 8.85575 8.07394 9.48891 8.46447 9.87943L10.5858 12.0008L8.4645 14.1221C8.07397 14.5126 8.07397 15.1458 8.4645 15.5363C8.85502 15.9268 9.48819 15.9268 9.87871 15.5363L12 13.415L14.1213 15.5363C14.5118 15.9268 15.145 15.9268 15.5355 15.5363C15.9261 15.1458 15.9261 14.5126 15.5355 14.1221L13.4142 12.0008L15.5356 9.87947Z" fill="white"/>
</svg>
