<svg width="24" height="24" viewBox="0 0 24 24" fill="none" xmlns="http://www.w3.org/2000/svg">
<rect width="24" height="24" rx="12" transform="matrix(-1 0 0 1 24 0)" fill="black" fill-opacity="0.3"/>
<path fill-rule="evenodd" clip-rule="evenodd" d="M12.9302 5.45088C13.5313 4.84971 14.506 4.84971 15.1072 5.45088C15.7084 6.05206 15.7084 7.02676 15.1072 7.62793L10.7165 12.0187L15.0706 16.3728C15.6717 16.974 15.6717 17.9487 15.0706 18.5499C14.4694 19.151 13.4947 19.151 12.8935 18.5499L7.45087 13.1072C6.8497 12.5061 6.8497 11.5314 7.45087 10.9302C7.457 10.9241 7.46317 10.918 7.46938 10.912C7.47537 10.9058 7.48143 10.8996 7.48755 10.8935L12.9302 5.45088Z" fill="white"/>
</svg>
