<svg width="28" height="28" viewBox="0 0 28 28" fill="none" xmlns="http://www.w3.org/2000/svg">
<rect width="28" height="28" rx="14" fill="#F4F5FF"/>
<path d="M8 11C8 7.68629 10.6863 5 14 5C17.3137 5 20 7.68629 20 11V20H8V11Z" fill="#5061FF"/>
<path d="M6 21C6 20.4477 6.44772 20 7 20H21C21.5523 20 22 20.4477 22 21V22C22 22.5523 21.5523 23 21 23H7C6.44772 23 6 22.5523 6 22V21Z" fill="#A5ADFF"/>
<path fill-rule="evenodd" clip-rule="evenodd" d="M15 14C15 14.5523 14.5523 15 14 15C13.4477 15 13 14.5523 13 14V10C13 9.44772 13.4477 9 14 9C14.5523 9 15 9.44772 15 10L15 14ZM14 18C14.5523 18 15 17.5523 15 17C15 16.4477 14.5523 16 14 16C13.4477 16 13 16.4477 13 17C13 17.5523 13.4477 18 14 18Z" fill="white"/>
</svg>
