<svg width="24" height="24" viewBox="0 0 24 24" fill="none" xmlns="http://www.w3.org/2000/svg">
<rect width="24" height="24" rx="4" fill="#F4F5FF"/>
<path fill-rule="evenodd" clip-rule="evenodd" d="M8 10C8 7.79086 9.79086 6 12 6C14.2091 6 16 7.79086 16 10V12H19C20.1046 12 21 12.8954 21 14V18C21 19.1046 20.1046 20 19 20H14H10H5C3.89543 20 3 19.1046 3 18V14C3 12.8954 3.89543 12 5 12H8V10Z" fill="#A5ADFF"/>
<path fill-rule="evenodd" clip-rule="evenodd" d="M12 12C12.5523 12 13 11.5523 13 11C13 10.4477 12.5523 10 12 10C11.4477 10 11 10.4477 11 11C11 11.5523 11.4477 12 12 12ZM12 17C11.4477 17 11 17.4477 11 18V20H13V18C13 17.4477 12.5523 17 12 17ZM6 18.5C6 17.6716 6.67157 17 7.5 17C8.32843 17 9 17.6716 9 18.5V19C9 19.5523 8.55228 20 8 20H7C6.44772 20 6 19.5523 6 19V18.5ZM16.5 17C15.6716 17 15 17.6716 15 18.5V19C15 19.5523 15.4477 20 16 20H17C17.5523 20 18 19.5523 18 19V18.5C18 17.6716 17.3284 17 16.5 17Z" fill="white"/>
<path fill-rule="evenodd" clip-rule="evenodd" d="M13.4142 4.41391C12.6332 3.63286 11.3668 3.63286 10.5858 4.41391L7.70711 7.29259C7.07714 7.92256 7.52331 8.9997 8.41421 8.9997H15.5858C16.4767 8.9997 16.9229 7.92255 16.2929 7.29259L13.4142 4.41391ZM5 19.6667C5 19.2985 5.29848 19 5.66667 19H9.58333C9.95152 19 10.25 19.2985 10.25 19.6667C10.25 19.8508 10.1008 20 9.91667 20H5.33333C5.14924 20 5 19.8508 5 19.6667ZM14 19.6667C14 19.2985 14.2985 19 14.6667 19H18.5833C18.9515 19 19.25 19.2985 19.25 19.6667C19.25 19.8508 19.1008 20 18.9167 20H14.3333C14.1492 20 14 19.8508 14 19.6667Z" fill="#5061FF"/>
</svg>
