<svg width="24" height="24" viewBox="0 0 24 24" fill="none" xmlns="http://www.w3.org/2000/svg">
<rect width="24" height="24" rx="8" fill="white"/>
<path d="M8.46676 18.4635C6.67736 19.4421 4.74283 17.4286 5.79214 15.6798L8 12L5.79214 8.32024C4.74283 6.57138 6.67736 4.55793 8.46675 5.53651L16.9596 10.181C17.6011 10.5318 18 11.2047 18 11.9358L18 12.0642C18 12.7953 17.6011 13.4682 16.9596 13.819L8.46676 18.4635Z" fill="#504DE1"/>
<path d="M12 12C12 12.5523 11.5523 13 11 13L7.40234 13L8 12L7.40234 11L11 11C11.5523 11 12 11.4477 12 12Z" fill="#B0AEFF"/>
</svg>
