<svg width="25" height="24" viewBox="0 0 25 24" fill="none" xmlns="http://www.w3.org/2000/svg">
<rect x="0.5" y="24" width="24" height="24" rx="12" transform="rotate(-90 0.5 24)" fill="#F4F5FF"/>
<path fill-rule="evenodd" clip-rule="evenodd" d="M6.88645 12.8505C6.37118 13.3422 6.37118 14.1395 6.88645 14.6312C7.40172 15.1229 8.23714 15.1229 8.75241 14.6312L12.5157 11.0399L16.2476 14.6013C16.7629 15.093 17.5983 15.093 18.1135 14.6013C18.6288 14.1096 18.6288 13.3123 18.1135 12.8206L13.4487 8.3688C12.9334 7.87707 12.098 7.87707 11.5827 8.3688C11.5775 8.3738 11.5723 8.37883 11.5671 8.38389C11.5618 8.38878 11.5566 8.39373 11.5513 8.39872L6.88645 12.8505Z" fill="#A5ADFF"/>
</svg>
