<svg width="25" height="24" viewBox="0 0 25 24" fill="none" xmlns="http://www.w3.org/2000/svg">
<rect x="24.5" width="24" height="24" rx="12" transform="rotate(90 24.5 0)" fill="#F4F5FF"/>
<path fill-rule="evenodd" clip-rule="evenodd" d="M18.1135 11.1495C18.6288 10.6578 18.6288 9.86053 18.1135 9.3688C17.5983 8.87707 16.7629 8.87707 16.2476 9.3688L12.4843 12.9601L8.75241 9.39872C8.23714 8.90699 7.40172 8.90699 6.88645 9.39872C6.37118 9.89045 6.37118 10.6877 6.88645 11.1794L11.5513 15.6312C12.0666 16.1229 12.902 16.1229 13.4173 15.6312C13.4225 15.6262 13.4277 15.6212 13.4329 15.6161C13.4382 15.6112 13.4434 15.6063 13.4487 15.6013L18.1135 11.1495Z" fill="#A5ADFF"/>
</svg>
