<svg width="20" height="20" viewBox="0 0 20 20" fill="none" xmlns="http://www.w3.org/2000/svg">
<path d="M17.5 10C17.5 14.1421 14.1421 17.5 10 17.5C5.85786 17.5 2.5 14.1421 2.5 10C2.5 5.85786 5.85786 2.5 10 2.5C14.1421 2.5 17.5 5.85786 17.5 10Z" fill="#5061FF"/>
<path d="M10 8.59375C10 9.88817 8.95067 10.9375 7.65625 10.9375C6.36183 10.9375 5.3125 9.88817 5.3125 8.59375C5.3125 7.29933 6.36183 6.25 7.65625 6.25C8.95067 6.25 10 7.29933 10 8.59375Z" fill="white"/>
<path d="M9.0625 8.59375C9.0625 9.3704 8.4329 10 7.65625 10C6.8796 10 6.25 9.3704 6.25 8.59375C6.25 7.8171 6.8796 7.1875 7.65625 7.1875C8.4329 7.1875 9.0625 7.8171 9.0625 8.59375Z" fill="#5061FF"/>
<path d="M14.6875 8.59375C14.6875 9.88817 13.6382 10.9375 12.3438 10.9375C11.0493 10.9375 10 9.88817 10 8.59375C10 7.29933 11.0493 6.25 12.3438 6.25C13.6382 6.25 14.6875 7.29933 14.6875 8.59375Z" fill="white"/>
<path d="M13.75 8.59375C13.75 9.3704 13.1204 10 12.3438 10C11.5671 10 10.9375 9.3704 10.9375 8.59375C10.9375 7.8171 11.5671 7.1875 12.3438 7.1875C13.1204 7.1875 13.75 7.8171 13.75 8.59375Z" fill="#5061FF"/>
</svg>
