<?xml version="1.0" standalone="no"?>
<!DOCTYPE svg PUBLIC "-//W3C//DTD SVG 20010904//EN"
 "http://www.w3.org/TR/2001/REC-SVG-20010904/DTD/svg10.dtd">
<svg version="1.0" xmlns="http://www.w3.org/2000/svg"
 width="1872.000000pt" height="1872.000000pt" viewBox="0 0 1872.000000 1872.000000"
 preserveAspectRatio="xMidYMid meet">
<metadata>
Created by potrace 1.14, written by Peter Selinger 2001-2017
</metadata>
<g transform="translate(0.000000,1872.000000) scale(0.100000,-0.100000)"
fill="#000000" stroke="none">
<path d="M6944 12460 c-143 -37 -289 -155 -358 -288 -10 -19 -19 -41 -21 -50
-2 -10 -11 -41 -19 -69 -32 -116 -11 -310 45 -410 77 -139 209 -242 363 -283
74 -20 255 -18 284 3 6 5 12 7 12 3 0 -10 106 40 153 72 45 32 147 130 147
143 0 4 6 14 13 21 19 19 57 84 57 96 0 6 5 23 11 39 23 55 32 196 18 268 -5
28 -11 57 -12 66 -4 26 -68 150 -91 177 -88 106 -199 186 -286 207 -8 2 -29 8
-46 13 -50 15 -195 11 -270 -8z"/>
<path d="M470 12163 c-47 -7 -155 -46 -179 -64 -13 -11 -28 -19 -32 -19 -10 0
-26 -13 -84 -70 -89 -86 -131 -155 -159 -260 -21 -79 -23 -4891 -2 -4985 12
-55 35 -110 71 -175 14 -26 95 -112 132 -141 122 -97 296 -131 478 -95 191 38
381 249 412 456 3 25 6 458 6 963 1 823 2 917 16 918 66 3 3202 1 3206 -3 2
-2 6 -436 7 -963 3 -887 4 -963 21 -1005 37 -96 75 -155 138 -219 90 -89 186
-139 304 -155 17 -2 32 -5 35 -6 13 -4 126 0 153 5 125 26 202 68 294 161 91
92 140 183 159 300 9 54 9 4888 0 4902 -4 7 -9 25 -12 40 -2 15 -20 60 -40
100 -68 139 -239 279 -374 307 -62 13 -238 9 -270 -6 -3 -1 -9 -3 -15 -4 -5
-1 -21 -7 -35 -12 -14 -6 -27 -10 -30 -10 -3 1 -34 -19 -70 -43 -112 -76 -181
-161 -231 -285 l-24 -60 -5 -965 -5 -964 -1595 -1 c-877 0 -1602 1 -1611 3
-14 3 -16 92 -16 920 0 504 -3 937 -6 962 -8 48 -32 129 -51 164 -20 39 -93
131 -127 161 -80 72 -174 124 -254 140 -44 9 -165 13 -205 8z"/>
<path d="M13578 12165 c-2 -2 -23 -6 -47 -10 -147 -22 -326 -165 -394 -315
-49 -108 -47 25 -44 -2615 l2 -2460 23 -60 c38 -100 93 -174 195 -261 34 -30
144 -81 192 -90 22 -3 49 -8 60 -11 33 -6 2294 -5 2370 2 39 3 95 8 125 10 30
3 66 7 80 10 14 2 45 7 70 10 25 3 52 7 60 9 8 1 33 6 55 10 255 49 567 163
800 293 99 55 291 174 330 205 6 5 39 31 75 59 36 28 85 67 109 87 48 40 263
253 296 293 11 13 40 49 65 79 25 30 49 58 55 62 5 4 6 8 2 8 -4 0 2 10 13 23
24 25 156 221 190 282 13 22 33 60 46 84 13 24 28 49 33 55 5 6 10 16 12 21 2
8 32 77 80 180 31 68 112 307 130 385 6 25 12 50 13 55 2 6 7 28 11 50 5 22
10 42 10 45 7 29 21 110 31 179 3 25 8 57 10 71 16 102 22 423 9 570 -12 146
-14 166 -29 250 -54 306 -144 580 -278 839 -54 104 -163 288 -178 301 -4 3
-21 28 -40 55 -100 148 -344 416 -489 535 -29 25 -58 50 -65 55 -30 29 -178
135 -186 135 -6 0 -10 3 -10 8 0 4 -26 23 -57 41 -32 19 -60 37 -63 40 -3 3
-16 12 -29 19 -13 8 -40 23 -60 34 -84 48 -267 139 -319 158 -133 50 -248 92
-266 96 -10 2 -33 8 -51 14 -18 6 -42 13 -54 15 -44 10 -57 13 -96 23 -40 11
-98 22 -145 28 -14 1 -36 5 -50 9 -14 3 -47 8 -75 11 -27 3 -72 8 -100 11 -51
6 -2421 13 -2427 8z m2363 -1119 c31 -4 67 -9 80 -12 13 -2 40 -6 59 -9 19 -3
50 -9 68 -14 18 -5 33 -10 35 -9 6 1 101 -27 167 -49 79 -27 284 -125 311
-149 8 -8 19 -14 24 -14 11 0 144 -100 218 -163 179 -154 328 -335 426 -520
53 -99 56 -107 69 -137 5 -14 17 -41 25 -60 27 -64 71 -221 92 -335 15 -78 19
-145 19 -335 0 -193 -4 -235 -38 -405 -30 -151 -133 -399 -217 -522 -16 -23
-29 -46 -29 -52 0 -6 -4 -11 -8 -11 -4 0 -15 -13 -25 -29 -72 -123 -317 -360
-492 -478 -97 -65 -281 -163 -307 -163 -8 0 -18 -4 -24 -9 -5 -5 -43 -18 -84
-31 -41 -12 -82 -24 -90 -27 -8 -3 -22 -7 -30 -9 -42 -7 -77 -15 -90 -20 -8
-3 -37 -7 -65 -10 -27 -3 -61 -8 -75 -11 -14 -3 -415 -8 -891 -9 l-866 -3 0
1797 c0 988 3 1799 8 1802 11 8 1667 4 1730 -4z"/>
<path d="M7004 11078 c-3 -5 -9 -6 -13 -4 -20 13 -156 -44 -221 -93 -67 -51
-174 -173 -179 -204 0 -4 -7 -20 -14 -35 -15 -28 -24 -68 -34 -137 -7 -54 -6
-3738 1 -3795 12 -91 29 -139 73 -210 85 -135 240 -237 388 -256 95 -12 252 5
284 30 8 6 16 10 18 8 9 -8 113 60 159 104 87 85 125 143 160 249 l23 70 1
1895 c0 2042 2 1940 -50 2055 -59 130 -200 256 -340 305 -67 23 -245 36 -256
18z"/>
<path d="M8894 9888 c-130 -19 -254 -93 -348 -208 -22 -28 -66 -118 -80 -164
-14 -47 -15 -213 -2 -271 12 -54 62 -149 102 -194 75 -86 124 -121 229 -165
50 -21 53 -21 1560 -23 1626 -3 1574 -4 1678 48 55 28 135 94 172 141 17 21
38 47 47 59 10 12 15 26 12 30 -3 5 -1 9 4 9 9 0 38 84 48 145 14 81 6 178
-21 250 -9 22 -18 48 -22 58 -3 9 -8 17 -12 17 -3 0 -12 13 -19 30 -15 34
-112 140 -128 140 -6 0 -19 9 -29 20 -10 11 -21 17 -26 15 -4 -3 -10 -1 -14 5
-7 11 -65 37 -99 45 -11 2 -32 7 -46 11 -34 8 -2944 11 -3006 2z"/>
</g>
</svg>
