<svg width="37" height="37" viewBox="0 0 37 37" fill="none" xmlns="http://www.w3.org/2000/svg">
<path d="M7.33301 10.5929C7.33301 9.32978 8.16302 8.22289 9.35943 7.89052L17.6094 5.5987C18.0832 5.4671 18.5828 5.4671 19.0566 5.5987L27.3066 7.89052C28.503 8.22289 29.333 9.32978 29.333 10.5929V20.8712C29.333 21.7146 28.9598 22.5132 28.3171 23.0451L20.0671 29.8729C19.0568 30.709 17.6092 30.709 16.5989 29.8729L8.34888 23.0451C7.70618 22.5132 7.33301 21.7147 7.33301 20.8712V10.5929Z" fill="#E1E1E1"/>
<path d="M25.333 16.5C25.333 20.366 22.199 23.5 18.333 23.5C14.467 23.5 11.333 20.366 11.333 16.5C11.333 12.634 14.467 9.5 18.333 9.5C22.199 9.5 25.333 12.634 25.333 16.5Z" fill="white"/>
<path fill-rule="evenodd" clip-rule="evenodd" d="M20.333 14.5C20.333 15.6046 19.4376 16.5 18.333 16.5C17.2284 16.5 16.333 15.6046 16.333 14.5C16.333 13.3954 17.2284 12.5 18.333 12.5C19.4376 12.5 20.333 13.3954 20.333 14.5ZM22.33 18.8189C22.332 18.796 22.333 18.7731 22.333 18.75C22.333 17.7835 20.5421 17 18.333 17C16.1239 17 14.333 17.7835 14.333 18.75C14.333 18.7731 14.334 18.796 14.336 18.8189C14.334 18.8456 14.333 18.8727 14.333 18.9V19.4333C14.333 20.0224 14.8106 20.5 15.3997 20.5H18.333H21.2663C21.8554 20.5 22.333 20.0224 22.333 19.4333V18.9C22.333 18.8727 22.332 18.8456 22.33 18.8189Z" fill="#E1E1E1"/>
</svg>
