<svg width="37" height="37" viewBox="0 0 37 37" fill="none" xmlns="http://www.w3.org/2000/svg">
<path d="M10.667 14.7C10.667 10.7235 14.2487 7.5 18.667 7.5C23.0853 7.5 26.667 10.7236 26.667 14.7V25.5H10.667V14.7Z" fill="#5061FF"/>
<path d="M7.66699 26.8333C7.66699 26.097 8.2826 25.5 9.04199 25.5H28.292C29.0514 25.5 29.667 26.097 29.667 26.8333V28.1667C29.667 28.903 29.0514 29.5 28.292 29.5H9.04199C8.2826 29.5 7.66699 28.903 7.66699 28.1667V26.8333Z" fill="#A5ADFF"/>
<path fill-rule="evenodd" clip-rule="evenodd" d="M19.667 18.5C19.667 19.0523 19.2193 19.5 18.667 19.5C18.1147 19.5 17.667 19.0523 17.667 18.5V14.5C17.667 13.9477 18.1147 13.5 18.667 13.5C19.2193 13.5 19.667 13.9477 19.667 14.5L19.667 18.5ZM18.667 22.5C19.2193 22.5 19.667 22.0523 19.667 21.5C19.667 20.9477 19.2193 20.5 18.667 20.5C18.1147 20.5 17.667 20.9477 17.667 21.5C17.667 22.0523 18.1147 22.5 18.667 22.5Z" fill="white"/>
</svg>
