<svg width="36" height="37" viewBox="0 0 36 37" fill="none" xmlns="http://www.w3.org/2000/svg">
<path fill-rule="evenodd" clip-rule="evenodd" d="M9.75 10.625H20.25C21.6997 10.625 22.875 11.8003 22.875 13.25C22.875 13.9749 23.4626 14.5625 24.1875 14.5625C24.9124 14.5625 25.5 13.9749 25.5 13.25C25.5 10.3505 23.1495 8 20.25 8H9.75C6.8505 8 4.5 10.3505 4.5 13.25V23.75C4.5 26.6495 6.8505 29 9.75 29H20.25C23.1495 29 25.5 26.6495 25.5 23.75C25.5 23.0251 24.9124 22.4375 24.1875 22.4375C23.4626 22.4375 22.875 23.0251 22.875 23.75C22.875 25.1997 21.6997 26.375 20.25 26.375H9.75C8.30025 26.375 7.125 25.1997 7.125 23.75V13.25C7.125 11.8003 8.30025 10.625 9.75 10.625ZM18 18.5C18 17.6716 18.6716 17 19.5 17H27.1006L25.7898 15.6893C25.4034 15.3028 25.4034 14.6763 25.7898 14.2898C26.1763 13.9034 26.8028 13.9034 27.1893 14.2898L30.6879 17.7885L30.6997 17.8004L30.7116 17.8122C31.0981 18.1986 31.0981 18.8252 30.7116 19.2116L27.213 22.7103C26.8266 23.0967 26.2 23.0967 25.8136 22.7103C25.4271 22.3238 25.4271 21.6973 25.8136 21.3108L27.1244 20H19.5C18.6716 20 18 19.3284 18 18.5Z" fill="#E1E1E1"/>
</svg>
