<svg width="24" height="24" viewBox="0 0 24 24" fill="none" xmlns="http://www.w3.org/2000/svg">
<path d="M21 12C21 16.9706 16.9706 21 12 21C7.02944 21 3 16.9706 3 12C3 7.02944 7.02944 3 12 3C16.9706 3 21 7.02944 21 12Z" fill="#5061FF"/>
<path fill-rule="evenodd" clip-rule="evenodd" d="M12.0304 15.8585C12.0619 15.8338 12.0922 15.807 12.1212 15.778L17.778 10.1212C18.1685 9.73064 18.1685 9.09748 17.778 8.70696C17.3875 8.31643 16.7543 8.31643 16.3638 8.70696L11.2424 13.8283L9.12117 11.707C8.73064 11.3165 8.09748 11.3165 7.70696 11.707C7.31643 12.0976 7.31643 12.7307 7.70696 13.1213L10.5354 15.9497C10.9259 16.3402 11.5591 16.3402 11.9496 15.9497C11.9787 15.9206 12.0056 15.8901 12.0304 15.8585Z" fill="white"/>
</svg>
