<svg width="14" height="14" viewBox="0 0 14 14" fill="none" xmlns="http://www.w3.org/2000/svg">
<path fill-rule="evenodd" clip-rule="evenodd" d="M7 14C10.866 14 14 10.866 14 7C14 3.13401 10.866 0 7 0C3.13401 0 0 3.13401 0 7C0 10.866 3.13401 14 7 14ZM7 8.66667C7.55228 8.66667 8 8.29357 8 7.83333L8 2.83333C8 2.3731 7.55228 2 7 2C6.44771 2 6 2.3731 6 2.83333V7.83333C6 8.29357 6.44772 8.66667 7 8.66667ZM8 11.1667C8 11.6269 7.55228 12 7 12C6.44772 12 6 11.6269 6 11.1667C6 10.7064 6.44772 10.3333 7 10.3333C7.55228 10.3333 8 10.7064 8 11.1667Z" fill="white"/>
</svg>
