<svg width="48" height="48" viewBox="0 0 48 48" fill="none" xmlns="http://www.w3.org/2000/svg">
<path fill-rule="evenodd" clip-rule="evenodd" d="M33.3366 17C33.3355 17 33.3344 17 33.3333 17L33 17C32.9993 17 32.9987 17 32.998 17C32.4467 17.0011 32 17.4484 32 18C32 18.5523 32.4477 19 33 19H35C35.5523 19 36 18.5523 36 18C36 17.4477 35.5523 17 35 17H33.3366ZM30.6667 9C33.1518 9 35.2399 10.6997 35.832 13H36C40.4183 13 44 16.5817 44 21V31C44 35.4183 40.4183 39 36 39H12C7.58172 39 4 35.4183 4 31V21C4 16.5817 7.58172 13 12 13H12.168C12.7601 10.6997 14.8482 9 17.3333 9L30.6667 9ZM24 35C28.4183 35 32 31.4183 32 27C32 22.5817 28.4183 19 24 19C19.5817 19 16 22.5817 16 27C16 31.4183 19.5817 35 24 35ZM30 27C30 30.3137 27.3137 33 24 33C20.6863 33 18 30.3137 18 27C18 23.6863 20.6863 21 24 21C27.3137 21 30 23.6863 30 27Z" fill="#5061FF"/>
<circle cx="24" cy="27" r="4" fill="#A5ADFF"/>
<path d="M42 15C42 18.3137 39.3137 21 36 21C32.6863 21 30 18.3137 30 15C30 11.6863 32.6863 9 36 9C39.3137 9 42 11.6863 42 15Z" fill="#A5ADFF"/>
<path fill-rule="evenodd" clip-rule="evenodd" d="M39.2 15.8008C39.6418 15.8008 40 15.4426 40 15.0008C40 14.559 39.6418 14.2008 39.2 14.2008L36.7997 14.2008L36.7997 11.8C36.7997 11.3582 36.4415 11 35.9997 11C35.5579 11 35.1997 11.3582 35.1997 11.8L35.1997 14.2008L32.8 14.2008C32.3582 14.2008 32 14.559 32 15.0008C32 15.4426 32.3582 15.8008 32.8 15.8008L35.1997 15.8008L35.1997 18.2C35.1997 18.6418 35.5579 19 35.9997 19C36.4415 19 36.7997 18.6418 36.7997 18.2L36.7997 15.8008L39.2 15.8008Z" fill="white"/>
</svg>
