<svg width="24" height="24" viewBox="0 0 24 24" fill="none" xmlns="http://www.w3.org/2000/svg">
<circle cx="12" cy="12" r="9" fill="black" fill-opacity="0.5"/>
<path fill-rule="evenodd" clip-rule="evenodd" d="M15.6064 9.95005C15.9969 9.55953 15.9969 8.92636 15.6064 8.53584C15.2159 8.14531 14.5827 8.14531 14.1922 8.53584L12.0713 10.6567L9.94969 8.53508C9.55917 8.14456 8.926 8.14456 8.53548 8.53508C8.14495 8.9256 8.14495 9.55877 8.53548 9.94929L10.6571 12.0709L8.53532 14.1927C8.1448 14.5832 8.1448 15.2164 8.53532 15.6069C8.92585 15.9974 9.55901 15.9974 9.94954 15.6069L12.0713 13.4851L14.1923 15.6061C14.5829 15.9967 15.216 15.9967 15.6065 15.6061C15.9971 15.2156 15.9971 14.5825 15.6065 14.1919L13.4855 12.0709L15.6064 9.95005Z" fill="white"/>
</svg>
