<svg width="350" height="172" viewBox="0 0 350 172" fill="none" xmlns="http://www.w3.org/2000/svg">
<rect width="350" height="172" rx="8" fill="#F5F5F5"/>
<path d="M23.6681 19.62C23.6681 19.26 23.7241 18.972 23.8361 18.756C23.9561 18.532 24.1161 18.372 24.3161 18.276C24.5241 18.18 24.7521 18.132 25.0001 18.132C25.2481 18.132 25.4721 18.18 25.6721 18.276C25.8721 18.372 26.0321 18.532 26.1521 18.756C26.2721 18.972 26.3321 19.26 26.3321 19.62C26.3321 19.972 26.2721 20.26 26.1521 20.484C26.0321 20.7 25.8721 20.86 25.6721 20.964C25.4721 21.06 25.2481 21.108 25.0001 21.108C24.7521 21.108 24.5241 21.06 24.3161 20.964C24.1161 20.86 23.9561 20.7 23.8361 20.484C23.7241 20.26 23.6681 19.972 23.6681 19.62ZM42.484 14.376H43.36V24.876H42.484V19.368H41.02V24.348H40.156V14.652H41.02V18.624H42.484V14.376ZM34.492 21.96C36.94 20.604 37.924 18.672 38.068 16.488H34.876V15.744H38.956C38.956 18.408 38.02 20.928 35.02 22.62L34.492 21.96ZM52.6483 14.388H53.5603V22.056H52.6483V14.388ZM45.2083 17.7C45.2083 16.176 46.3843 15.12 47.9323 15.12C49.4923 15.12 50.6563 16.176 50.6563 17.7C50.6563 19.2 49.4923 20.268 47.9323 20.268C46.3843 20.268 45.2083 19.2 45.2083 17.7ZM46.0843 17.7C46.0843 18.732 46.8883 19.476 47.9323 19.476C48.9883 19.476 49.7923 18.732 49.7923 17.7C49.7923 16.644 48.9883 15.9 47.9323 15.9C46.8883 15.9 46.0843 16.644 46.0843 17.7ZM46.8523 24.636V21.276H47.7403V23.892H53.8843V24.636H46.8523ZM61.0366 17.124H63.1726V14.376H64.0726V20.628H63.1726V17.868H61.0366V17.124ZM55.5046 19.812C57.0406 19.248 58.1566 17.832 58.1566 16.308V15.9H55.7806V15.156H61.3846V15.9H59.0566V16.308C59.0566 17.676 60.1126 18.984 61.6246 19.512L61.1566 20.232C59.9806 19.8 59.0686 18.912 58.6246 17.82C58.1806 19.068 57.1966 20.052 55.9606 20.532L55.5046 19.812ZM57.1366 22.92C57.1366 21.696 58.4566 20.964 60.6286 20.964C62.7886 20.964 64.1086 21.696 64.1086 22.92C64.1086 24.156 62.7886 24.864 60.6286 24.864C58.4566 24.864 57.1366 24.156 57.1366 22.92ZM58.0366 22.92C58.0366 23.688 59.0206 24.156 60.6286 24.156C62.2246 24.156 63.2206 23.688 63.2206 22.92C63.2206 22.14 62.2246 21.672 60.6286 21.672C59.0206 21.672 58.0366 22.14 58.0366 22.92ZM65.9448 22.764H70.2408V20.472H67.0848V15.12H67.9728V17.016H73.4208V15.12H74.3088V20.472H71.1288V22.764H75.4608V23.52H65.9448V22.764ZM67.9728 19.74H73.4208V17.76H67.9728V19.74ZM76.4331 19.284H85.9491V19.968H76.4331V19.284ZM77.5731 21.504V20.844H84.7491V23.064H78.4851V24.072H85.0851V24.744H77.5971V22.428H83.8731V21.504H77.5731ZM77.6451 15.36V14.7H84.7131V16.86H78.5451V17.796H84.9051V18.468H77.6691V16.236H83.8251V15.36H77.6451ZM94.391 21.024C96.623 21.024 98.051 21.744 98.051 22.944C98.051 24.144 96.623 24.864 94.391 24.864C92.171 24.864 90.755 24.144 90.755 22.944C90.755 21.744 92.171 21.024 94.391 21.024ZM89.699 20.028V19.296H93.635V17.256H94.523V19.296H99.167V20.028H89.699ZM90.827 15.66V14.916H97.955V15.816C97.955 16.668 97.955 17.508 97.667 18.588L96.791 18.492C97.067 17.412 97.067 16.632 97.067 15.816V15.66H90.827ZM91.643 22.944C91.643 23.688 92.723 24.156 94.391 24.156C96.071 24.156 97.151 23.688 97.151 22.944C97.151 22.188 96.071 21.72 94.391 21.72C92.723 21.72 91.643 22.188 91.643 22.944ZM100.175 20.364H109.691V21.12H107.171V24.876H106.259V21.12H103.571V24.876H102.647V21.12H100.175V20.364ZM101.243 17.088C101.243 15.684 102.719 14.82 104.903 14.82C107.099 14.82 108.563 15.684 108.563 17.088C108.563 18.492 107.099 19.368 104.903 19.368C102.719 19.368 101.243 18.492 101.243 17.088ZM102.167 17.088C102.167 18.036 103.271 18.636 104.903 18.636C106.535 18.636 107.651 18.036 107.651 17.088C107.651 16.152 106.535 15.54 104.903 15.54C103.271 15.54 102.167 16.152 102.167 17.088ZM113.993 15.06H118.853V19.332H113.993V15.06ZM114.749 24.144C116.525 23.928 118.265 22.92 118.265 21.852H115.169V21.144H118.265V20.112H119.177V21.144H122.273V21.852H119.177C119.177 22.896 120.881 23.916 122.633 24.144L122.333 24.84C120.773 24.624 119.333 23.868 118.721 22.884C118.085 23.88 116.621 24.624 115.061 24.84L114.749 24.144ZM114.857 18.612H117.989V15.78H114.857V18.612ZM121.121 20.412V14.376H122.021V20.412H121.121ZM126.683 22.764H129.047V19.896C128.159 19.44 127.619 18.684 127.619 17.736C127.619 16.104 129.215 15.048 131.423 15.048C133.655 15.048 135.227 16.104 135.227 17.736C135.227 18.672 134.699 19.416 133.835 19.884V22.764H136.199V23.508H126.683V22.764ZM128.495 17.736C128.495 18.924 129.719 19.704 131.423 19.704C133.127 19.704 134.363 18.924 134.363 17.736C134.363 16.548 133.127 15.768 131.423 15.768C129.719 15.768 128.495 16.548 128.495 17.736ZM129.935 22.764H132.935V20.232C132.479 20.352 131.975 20.412 131.423 20.412C130.883 20.412 130.391 20.352 129.935 20.232V22.764ZM137.447 15.66H139.823V14.328H140.711V15.66H143.051V16.392H140.711V16.608C140.711 17.952 141.827 19.128 143.363 19.584L142.943 20.28C141.731 19.908 140.759 19.116 140.279 18.072C139.835 19.224 138.875 20.136 137.639 20.556L137.195 19.848C138.731 19.344 139.823 18.06 139.823 16.608V16.392H137.447V15.66ZM138.851 22.932C138.851 21.72 140.171 21.024 142.343 21.024C144.503 21.024 145.823 21.72 145.823 22.932C145.823 24.144 144.503 24.852 142.343 24.852C140.171 24.852 138.851 24.144 138.851 22.932ZM139.751 22.932C139.751 23.688 140.735 24.144 142.343 24.144C143.939 24.144 144.935 23.688 144.935 22.932C144.935 22.188 143.939 21.732 142.343 21.732C140.735 21.732 139.751 22.188 139.751 22.932ZM142.739 18.132V17.388H144.887V14.376H145.787V20.736H144.887V18.132H142.739ZM154.824 14.376H155.724V18.72H157.464V19.476H155.724V24.876H154.824V14.376ZM147.6 16.812V16.068H150.288V14.496H151.2V16.068H153.816V16.812H147.6ZM148.212 20.112C148.212 18.696 149.292 17.712 150.756 17.712C152.232 17.712 153.3 18.696 153.3 20.112C153.3 21.528 152.232 22.512 150.756 22.512C149.292 22.512 148.212 21.528 148.212 20.112ZM149.076 20.112C149.076 21.072 149.772 21.756 150.756 21.756C151.728 21.756 152.436 21.072 152.436 20.112C152.436 19.152 151.728 18.456 150.756 18.456C149.772 18.456 149.076 19.152 149.076 20.112ZM165.852 14.376H166.74V24.876H165.852V19.356H163.356V18.6H165.852V14.376ZM158.148 22.164C160.98 20.772 162.3 18.732 162.48 16.248H158.592V15.504H163.38C163.38 18.48 162.12 21.132 158.652 22.86L158.148 22.164ZM175.8 14.364H176.7V18.588H178.392V19.344H176.7V24.876H175.8V14.364ZM169.08 22.2V15.408H169.968V21.456C171.492 21.456 173.076 21.336 174.792 20.976L174.9 21.732C173.1 22.092 171.504 22.2 169.908 22.2H169.08ZM180.469 23.088L179.809 25.308H179.173L179.533 23.088H180.469ZM192.887 14.376H193.787V20.592H192.887V18.912H190.427V19.824H185.663V15.168H190.427V16.092H192.887V14.376ZM186.539 19.104H189.551V15.9H186.539V19.104ZM186.851 22.884C186.851 21.636 188.183 20.904 190.343 20.904C192.503 20.904 193.835 21.636 193.835 22.884C193.835 24.144 192.503 24.852 190.343 24.852C188.183 24.852 186.851 24.144 186.851 22.884ZM187.751 22.884C187.751 23.664 188.735 24.144 190.343 24.144C191.951 24.144 192.935 23.664 192.935 22.884C192.935 22.092 191.951 21.624 190.343 21.624C188.735 21.624 187.751 22.092 187.751 22.884ZM190.427 18.18H192.887V16.836H190.427V18.18ZM203.7 14.376H204.564V24.876H203.7V14.376ZM195.792 18.9C195.792 16.668 196.668 15.264 198.012 15.264C198.912 15.264 199.608 15.876 199.968 16.932H201.648V14.616H202.5V24.336H201.648V20.868H199.968C199.608 21.936 198.912 22.548 198.012 22.548C196.668 22.548 195.792 21.144 195.792 18.9ZM196.62 18.9C196.62 20.616 197.16 21.708 198.012 21.708C198.888 21.708 199.44 20.616 199.44 18.9C199.44 17.184 198.888 16.104 198.012 16.104C197.16 16.104 196.62 17.184 196.62 18.9ZM200.16 20.124H201.648V17.676H200.16C200.22 18.048 200.256 18.456 200.256 18.9C200.256 19.344 200.22 19.752 200.16 20.124ZM208.998 15.612H211.158V14.532H212.01V15.612H214.182V16.32H208.998V15.612ZM208.734 20.508C210.234 20.508 212.586 20.46 214.278 20.22L214.338 20.892C213.606 21.024 212.79 21.108 211.974 21.168V24.312H211.122V21.216C210.282 21.264 209.49 21.276 208.842 21.276L208.734 20.508ZM209.37 18.324C209.37 17.352 210.282 16.74 211.602 16.74C212.91 16.74 213.822 17.352 213.822 18.324C213.822 19.26 212.91 19.884 211.602 19.884C210.282 19.884 209.37 19.26 209.37 18.324ZM210.186 18.324C210.186 18.876 210.762 19.236 211.602 19.236C212.442 19.236 213.018 18.876 213.018 18.324C213.018 17.76 212.442 17.4 211.602 17.4C210.762 17.4 210.186 17.76 210.186 18.324ZM212.97 22.572V21.876H214.938V14.604H215.778V24.324H214.938V22.572H212.97ZM216.894 24.876V14.376H217.758V24.876H216.894ZM220.638 21.636H221.538V23.892H227.838V24.636H220.638V21.636ZM219.402 20.772V20.04H223.698V18.228H224.586V20.04H228.918V20.772H219.402ZM220.038 18.192C221.838 17.88 223.698 16.632 223.698 15.132V14.652H224.598V15.132C224.598 16.632 226.458 17.892 228.246 18.192L227.886 18.9C226.338 18.6 224.802 17.7 224.154 16.428C223.506 17.7 221.958 18.6 220.398 18.9L220.038 18.192ZM231.234 23.088L230.574 25.308H229.938L230.298 23.088H231.234ZM235.937 20.496H245.453V21.24H241.109V24.888H240.221V21.24H235.937V20.496ZM237.161 19.044V14.976H244.205V19.044H237.161ZM238.037 18.336H243.329V15.708H238.037V18.336ZM253.673 14.364H254.573V17.52H256.145V18.264H254.573V21.972H253.673V14.364ZM246.941 20.112V15.276H251.561V16.032H247.829V19.356C249.929 19.356 251.129 19.296 252.521 19.008L252.629 19.74C251.165 20.028 249.929 20.112 247.745 20.112H246.941ZM248.069 24.636V21.216H248.957V23.892H255.053V24.636H248.069ZM260.267 15.048H265.439V15.6C265.439 16.248 265.439 17.196 265.163 18.444L264.287 18.372C264.539 17.232 264.563 16.404 264.563 15.78H260.267V15.048ZM259.619 19.44C260.303 19.44 261.071 19.44 261.875 19.416V17.304H262.763V19.392C263.927 19.344 265.127 19.272 266.207 19.128L266.267 19.788C264.095 20.136 261.599 20.196 259.727 20.196L259.619 19.44ZM260.999 22.944C260.999 21.768 262.319 21.072 264.455 21.072C266.603 21.072 267.923 21.768 267.923 22.944C267.923 24.144 266.603 24.852 264.455 24.852C262.319 24.852 260.999 24.144 260.999 22.944ZM261.899 22.944C261.899 23.688 262.883 24.132 264.455 24.132C266.039 24.132 267.023 23.688 267.023 22.944C267.023 22.224 266.039 21.78 264.455 21.78C262.883 21.78 261.899 22.224 261.899 22.944ZM266.927 20.94V14.376H267.827V17.268H269.351V18.024H267.827V20.94H266.927ZM271.176 15.444H278.496V16.488C278.496 17.784 278.496 19.212 278.124 21.324L277.212 21.216C277.596 19.212 277.596 17.748 277.596 16.488V16.188H271.176V15.444ZM270.168 23.376V22.62H273.9V18.852H274.788V22.62H279.66V23.376H270.168ZM282 23.088L281.34 25.308H280.704L281.064 23.088H282ZM287.975 14.544H288.863V15.552H294.047V14.544H294.947V18H287.975V14.544ZM286.703 19.62V18.888H296.183V19.62H291.887V20.688H294.959V22.98H288.767V24.048H295.283V24.756H287.891V22.332H294.083V21.372H287.855V20.688H290.987V19.62H286.703ZM288.863 17.292H294.047V16.248H288.863V17.292ZM297.707 14.916H298.607V16.56H301.547V14.916H302.435V16.968H304.907V14.376H305.807V20.112H304.907V17.712H302.435V19.716H297.707V14.916ZM298.607 18.972H301.547V17.268H298.607V18.972ZM299.111 24.72V20.628H299.999V21.924H304.907V20.628H305.795V24.72H299.111ZM299.999 23.988H304.907V22.656H299.999V23.988ZM316.025 17.124H318.161V14.376H319.061V20.628H318.161V17.868H316.025V17.124ZM310.493 19.812C312.029 19.248 313.145 17.832 313.145 16.308V15.9H310.769V15.156H316.373V15.9H314.045V16.308C314.045 17.676 315.101 18.984 316.613 19.512L316.145 20.232C314.969 19.8 314.057 18.912 313.613 17.82C313.169 19.068 312.185 20.052 310.949 20.532L310.493 19.812ZM312.125 22.92C312.125 21.696 313.445 20.964 315.617 20.964C317.777 20.964 319.097 21.696 319.097 22.92C319.097 24.156 317.777 24.864 315.617 24.864C313.445 24.864 312.125 24.156 312.125 22.92ZM313.025 22.92C313.025 23.688 314.009 24.156 315.617 24.156C317.213 24.156 318.209 23.688 318.209 22.92C318.209 22.14 317.213 21.672 315.617 21.672C314.009 21.672 313.025 22.14 313.025 22.92ZM320.933 22.764H325.229V20.472H322.073V15.12H322.961V17.016H328.409V15.12H329.297V20.472H326.117V22.764H330.449V23.52H320.933V22.764ZM322.961 19.74H328.409V17.76H322.961V19.74ZM34.48 40.364H43.996V41.12H41.476V44.876H40.564V41.12H37.876V44.876H36.952V41.12H34.48V40.364ZM35.548 37.088C35.548 35.684 37.024 34.82 39.208 34.82C41.404 34.82 42.868 35.684 42.868 37.088C42.868 38.492 41.404 39.368 39.208 39.368C37.024 39.368 35.548 38.492 35.548 37.088ZM36.472 37.088C36.472 38.036 37.576 38.636 39.208 38.636C40.84 38.636 41.956 38.036 41.956 37.088C41.956 36.152 40.84 35.54 39.208 35.54C37.576 35.54 36.472 36.152 36.472 37.088ZM44.9683 42.8H49.2523V40.352H45.8443V39.62H47.4643V36.128H45.8203V35.396H53.5843V36.128H51.9283V39.62H53.5723V40.352H50.1403V42.8H54.4843V43.556H44.9683V42.8ZM48.3763 39.62H51.0403V36.128H48.3763V39.62ZM60.9942 35.3H61.8942V37.208C61.8942 39.128 63.2022 41.06 64.7142 41.768L64.1742 42.488C62.9862 41.9 61.9542 40.64 61.4622 39.128C60.9822 40.724 59.9382 42.068 58.7142 42.68L58.1622 41.936C59.6862 41.204 60.9942 39.2 60.9942 37.208V35.3ZM65.8782 44.888V34.364H66.7782V44.888H65.8782ZM79.1441 34.364H80.0441V44.888H79.1441V34.364ZM71.8601 38.84C71.8601 36.608 72.9641 35.192 74.5241 35.192C76.0721 35.192 77.1761 36.608 77.1761 38.84C77.1761 41.072 76.0721 42.5 74.5241 42.5C72.9641 42.5 71.8601 41.072 71.8601 38.84ZM72.7361 38.84C72.7361 40.556 73.4681 41.696 74.5241 41.696C75.5681 41.696 76.3121 40.556 76.3121 38.84C76.3121 37.124 75.5681 35.996 74.5241 35.996C73.4681 35.996 72.7361 37.124 72.7361 38.84ZM90.0044 34.376H90.8684V44.876H90.0044V34.376ZM82.0964 38.9C82.0964 36.668 82.9724 35.264 84.3164 35.264C85.6004 35.264 86.4404 36.488 86.5484 38.48H87.9284V34.616H88.7804V44.336H87.9284V39.224H86.5484C86.4764 41.276 85.6124 42.548 84.3164 42.548C82.9724 42.548 82.0964 41.144 82.0964 38.9ZM82.9244 38.9C82.9244 40.616 83.4644 41.708 84.3164 41.708C85.1924 41.708 85.7324 40.616 85.7324 38.9C85.7324 37.184 85.1924 36.104 84.3164 36.104C83.4644 36.104 82.9244 37.184 82.9244 38.9ZM103.246 34.376H104.11V44.876H103.246V39.356H101.71V44.324H100.87V34.616H101.71V38.6H103.246V34.376ZM95.6143 42.26V35.66H99.5023V36.404H96.5023V41.504C97.9423 41.504 98.9503 41.444 100.09 41.204L100.198 41.948C98.9383 42.212 97.8823 42.26 96.2863 42.26H95.6143ZM112.943 34.388H113.843V37.856H115.415V38.612H113.843V42.26H112.943V34.388ZM105.743 36.404V35.672H108.395V34.388H109.295V35.672H111.947V36.404H105.743ZM106.343 38.96C106.343 37.772 107.351 37.004 108.839 37.004C110.327 37.004 111.347 37.772 111.347 38.96C111.347 40.136 110.327 40.904 108.839 40.904C107.351 40.904 106.343 40.136 106.343 38.96ZM107.195 38.96C107.195 39.704 107.855 40.196 108.839 40.196C109.823 40.196 110.483 39.704 110.483 38.96C110.483 38.204 109.823 37.712 108.839 37.712C107.855 37.712 107.195 38.204 107.195 38.96ZM107.339 44.636V41.624H108.227V43.892H114.335V44.636H107.339ZM119.512 35.288H124.384V40.16H119.512V35.288ZM120.388 39.428H123.508V36.02H120.388V39.428ZM120.844 44.504V41.204H121.732V43.772H127.888V44.504H120.844ZM126.64 41.924V34.388H127.552V41.924H126.64ZM135.341 36.92H137.153V34.376H138.053V41.168H137.153V39.692H135.329V38.96H137.153V37.652H135.341V36.92ZM129.449 36.284V35.564H131.993V34.28H132.893V35.564H135.353V36.284H129.449ZM130.061 38.78C130.061 37.616 131.033 36.848 132.425 36.848C133.829 36.848 134.789 37.616 134.789 38.78C134.789 39.956 133.829 40.736 132.425 40.736C131.033 40.736 130.061 39.956 130.061 38.78ZM130.913 38.78C130.913 39.536 131.513 40.04 132.425 40.04C133.337 40.04 133.949 39.536 133.949 38.78C133.949 38.036 133.337 37.544 132.425 37.544C131.513 37.544 130.913 38.036 130.913 38.78ZM131.141 43.064C131.141 41.936 132.461 41.276 134.633 41.276C136.793 41.276 138.113 41.936 138.113 43.064C138.113 44.192 136.793 44.852 134.633 44.852C132.461 44.852 131.141 44.192 131.141 43.064ZM132.077 43.064C132.077 43.748 133.049 44.156 134.633 44.156C136.205 44.156 137.177 43.748 137.177 43.064C137.177 42.368 136.205 41.984 134.633 41.984C133.049 41.984 132.077 42.368 132.077 43.064ZM142.541 35.3H143.417V37.208C143.417 39.056 144.641 40.976 146.117 41.708L145.565 42.416C144.425 41.816 143.453 40.568 142.997 39.092C142.529 40.652 141.533 41.996 140.357 42.632L139.805 41.9C141.305 41.144 142.541 39.128 142.541 37.208V35.3ZM147.089 44.876V34.376H147.989V38.648H149.741V39.416H147.989V44.876H147.089ZM153.017 34.916H153.893V36.068C153.893 37.508 154.985 38.828 156.473 39.356L156.005 40.052C154.853 39.632 153.929 38.744 153.485 37.628C153.041 38.888 152.105 39.86 150.881 40.352L150.389 39.632C151.961 39.056 153.017 37.628 153.017 36.008V34.916ZM151.793 42.956C151.793 41.756 153.089 41.06 155.225 41.06C157.373 41.06 158.669 41.756 158.669 42.956C158.669 44.156 157.373 44.852 155.225 44.852C153.089 44.852 151.793 44.156 151.793 42.956ZM152.669 42.956C152.669 43.7 153.653 44.144 155.225 44.144C156.809 44.144 157.781 43.7 157.781 42.956C157.781 42.212 156.809 41.768 155.225 41.768C153.653 41.768 152.669 42.212 152.669 42.956ZM157.661 40.772V34.376H158.561V37.124H160.133V37.88H158.561V40.772H157.661ZM163.967 35.78H165.887V34.496H166.751V35.78H168.647V36.512H166.751V36.632C166.751 37.904 167.579 39.116 168.887 39.62L168.467 40.304C167.447 39.896 166.715 39.104 166.343 38.132C165.983 39.188 165.251 40.052 164.207 40.496L163.763 39.824C165.095 39.272 165.887 37.988 165.887 36.632V36.512H163.967V35.78ZM165.479 42.128V41.384H172.511V44.876H171.611V42.128H165.479ZM169.403 40.748V34.58H170.267V37.196H171.647V34.388H172.511V40.82H171.647V37.94H170.267V40.748H169.403ZM181.848 34.388H182.748V40.388H181.848V34.388ZM174.408 37.388C174.408 35.936 175.548 34.94 177.132 34.94C178.716 34.94 179.855 35.936 179.855 37.388C179.855 38.828 178.716 39.824 177.132 39.824C175.548 39.824 174.408 38.828 174.408 37.388ZM175.284 37.388C175.284 38.384 176.064 39.068 177.132 39.068C178.2 39.068 178.98 38.384 178.98 37.388C178.98 36.392 178.2 35.696 177.132 35.696C176.064 35.696 175.284 36.392 175.284 37.388ZM175.992 44.732V40.964H182.748V44.732H175.992ZM176.868 44H181.872V41.684H176.868V44ZM184.656 39.92H194.136V40.652H184.656V39.92ZM185.712 36.824C185.712 35.516 187.152 34.736 189.396 34.736C191.64 34.736 193.08 35.516 193.08 36.824C193.08 38.132 191.64 38.912 189.396 38.912C187.152 38.912 185.712 38.132 185.712 36.824ZM185.892 44.648V41.6H186.792V43.904H193.092V44.648H185.892ZM186.636 36.824C186.636 37.664 187.728 38.18 189.396 38.18C191.076 38.18 192.156 37.664 192.156 36.824C192.156 35.984 191.076 35.48 189.396 35.48C187.728 35.48 186.636 35.984 186.636 36.824ZM198.162 35.12H203.778V35.864H201.426V36.32C201.426 37.736 202.47 39.008 203.994 39.536L203.526 40.256C202.35 39.836 201.438 38.96 200.994 37.868C200.55 39.068 199.59 40.004 198.366 40.46L197.874 39.752C199.446 39.2 200.538 37.844 200.538 36.332V35.864H198.162V35.12ZM199.254 42.008V41.276H206.046V44.876H205.146V42.008H199.254ZM205.146 40.688V34.376H206.046V37.172H207.618V37.928H206.046V40.688H205.146ZM211.062 34.976H211.95V36.032C211.95 37.532 213.018 38.852 214.53 39.38L214.038 40.088C212.886 39.656 211.986 38.792 211.53 37.676C211.086 38.948 210.126 39.92 208.866 40.4L208.398 39.668C209.97 39.092 211.062 37.7 211.062 36.068V34.976ZM210.066 42.884C210.066 41.636 211.398 40.904 213.57 40.904C215.73 40.904 217.05 41.636 217.05 42.884C217.05 44.144 215.73 44.852 213.57 44.852C211.398 44.852 210.066 44.144 210.066 42.884ZM210.978 42.884C210.978 43.664 211.95 44.144 213.57 44.144C215.166 44.144 216.162 43.664 216.162 42.884C216.162 42.092 215.166 41.624 213.57 41.624C211.95 41.624 210.978 42.092 210.978 42.884ZM213.774 37.388V36.632H216.102V34.376H217.002V40.592H216.102V37.388H213.774ZM219.09 35.456H224.742V36.212H222.39V37.628C222.39 39.296 223.614 41.168 225.114 41.876L224.598 42.596C223.422 42.008 222.426 40.76 221.958 39.356C221.478 40.88 220.422 42.236 219.258 42.848L218.73 42.14C220.194 41.408 221.514 39.416 221.514 37.628V36.212H219.09V35.456ZM226.038 44.876V34.376H226.938V38.648H228.678V39.404H226.938V44.876H226.038ZM237.415 34.376H238.279V44.876H237.415V34.376ZM229.507 38.9C229.507 36.668 230.383 35.264 231.727 35.264C233.011 35.264 233.851 36.488 233.959 38.48H235.339V34.616H236.191V44.336H235.339V39.224H233.959C233.887 41.276 233.023 42.548 231.727 42.548C230.383 42.548 229.507 41.144 229.507 38.9ZM230.335 38.9C230.335 40.616 230.875 41.708 231.727 41.708C232.603 41.708 233.143 40.616 233.143 38.9C233.143 37.184 232.603 36.104 231.727 36.104C230.875 36.104 230.335 37.184 230.335 38.9ZM247.903 34.376H248.767V44.876H247.903V34.376ZM239.875 41.948C242.143 40.592 243.283 38.672 243.451 36.464H240.307V35.72H244.351C244.351 36.752 244.183 37.76 243.823 38.696H245.719V34.652H246.571V44.324H245.719V39.428H243.499C242.863 40.652 241.855 41.744 240.403 42.608L239.875 41.948ZM255.769 40.856H256.633V41.432C256.633 42.38 257.137 43.376 258.121 43.952C259.141 43.316 259.657 42.248 259.657 41.432V40.856H260.533V41.432C260.533 42.524 261.337 43.604 262.657 44.06L262.213 44.732C261.181 44.36 260.449 43.616 260.077 42.74C259.765 43.592 259.129 44.408 258.157 44.828C257.149 44.432 256.501 43.664 256.189 42.776C255.817 43.616 255.097 44.348 254.101 44.732L253.645 44.06C254.965 43.58 255.769 42.44 255.769 41.432V40.856ZM253.369 37.448C253.369 35.996 254.509 35 256.093 35C257.677 35 258.817 35.996 258.817 37.448C258.817 38.888 257.677 39.872 256.093 39.872C254.509 39.872 253.369 38.888 253.369 37.448ZM254.245 37.448C254.245 38.444 255.025 39.128 256.093 39.128C257.173 39.128 257.941 38.444 257.941 37.448C257.941 36.452 257.173 35.756 256.093 35.756C255.025 35.756 254.245 36.452 254.245 37.448ZM260.809 40.388V34.388H261.721V40.388H260.809ZM264.817 40.664H265.705V41.924H270.949V40.664H271.837V44.732H264.817V40.664ZM263.605 39.92V39.188H273.085V39.92H263.605ZM264.157 37.7C265.993 37.448 267.889 36.332 267.889 34.976V34.496H268.813V34.976C268.813 36.296 270.733 37.46 272.545 37.7L272.209 38.408C270.625 38.168 269.017 37.34 268.357 36.164C267.697 37.352 266.089 38.168 264.493 38.408L264.157 37.7ZM265.705 44H270.949V42.632H265.705V44ZM281.773 34.376H282.661V44.876H281.773V34.376ZM274.765 42.152V35.408H275.665V41.372C277.249 41.372 278.893 41.252 280.657 40.88L280.777 41.648C278.941 42.02 277.285 42.152 275.629 42.152H274.765ZM291.746 34.364H292.646V38.54H294.386V39.296H292.646V44.888H291.746V34.364ZM285.05 42.26V35.408H289.922V36.14H285.938V41.492C287.87 41.492 289.202 41.432 290.738 41.132L290.846 41.9C289.226 42.2 287.858 42.26 285.866 42.26H285.05ZM23.6681 63.62C23.6681 63.26 23.7241 62.972 23.8361 62.756C23.9561 62.532 24.1161 62.372 24.3161 62.276C24.5241 62.18 24.7521 62.132 25.0001 62.132C25.2481 62.132 25.4721 62.18 25.6721 62.276C25.8721 62.372 26.0321 62.532 26.1521 62.756C26.2721 62.972 26.3321 63.26 26.3321 63.62C26.3321 63.972 26.2721 64.26 26.1521 64.484C26.0321 64.7 25.8721 64.86 25.6721 64.964C25.4721 65.06 25.2481 65.108 25.0001 65.108C24.7521 65.108 24.5241 65.06 24.3161 64.964C24.1161 64.86 23.9561 64.7 23.8361 64.484C23.7241 64.26 23.6681 63.972 23.6681 63.62ZM42.16 58.388H43.072V66.056H42.16V58.388ZM34.72 61.7C34.72 60.176 35.896 59.12 37.444 59.12C39.004 59.12 40.168 60.176 40.168 61.7C40.168 63.2 39.004 64.268 37.444 64.268C35.896 64.268 34.72 63.2 34.72 61.7ZM35.596 61.7C35.596 62.732 36.4 63.476 37.444 63.476C38.5 63.476 39.304 62.732 39.304 61.7C39.304 60.644 38.5 59.9 37.444 59.9C36.4 59.9 35.596 60.644 35.596 61.7ZM36.364 68.636V65.276H37.252V67.892H43.396V68.636H36.364ZM52.6603 58.376H53.5603V68.876H52.6603V58.376ZM45.1003 66.176C47.9323 64.82 49.3603 62.768 49.5523 60.248H45.5683V59.504H50.4643C50.4643 62.528 49.0723 65.192 45.5803 66.896L45.1003 66.176ZM56.6806 58.82H63.7246V59.504C63.7246 60.2 63.7246 61.112 63.4966 62.312H64.9726V63.044H55.4566V62.312H62.5966C62.8366 61.136 62.8486 60.26 62.8486 59.564H56.6806V58.82ZM56.5846 64.844V64.124H63.7726V66.752H57.5086V68.024H64.0366V68.756H56.6206V66.056H62.8846V64.844H56.5846ZM65.9448 66.812H70.2408V64.796H67.1448V61.58H73.3848V59.888H67.1208V59.156H74.2728V62.3H68.0328V64.064H74.5128V64.796H71.1288V66.812H75.4608V67.556H65.9448V66.812ZM79.1988 64.724H88.6908V65.48H84.3948V68.888H83.4948V65.48H79.1988V64.724ZM79.8108 63.188C81.6468 62.924 83.4948 61.784 83.4948 60.44V60.416H80.1228V59.684H83.4948V58.376H84.3948V59.684H87.7668V60.416H84.3948V60.44C84.3948 61.772 86.2308 62.924 88.0668 63.188L87.7428 63.908C86.1348 63.668 84.6108 62.84 83.9508 61.688C83.2788 62.84 81.7428 63.656 80.1348 63.908L79.8108 63.188ZM89.975 59.804H92.339V58.448H93.227V59.804H95.579V60.524H93.227V60.872C93.227 62.288 94.331 63.524 95.867 64.016L95.423 64.724C94.223 64.328 93.263 63.488 92.795 62.396C92.351 63.572 91.403 64.472 90.167 64.916L89.711 64.208C91.259 63.68 92.339 62.372 92.339 60.872V60.524H89.975V59.804ZM91.619 68.636V65.516H92.519V67.892H98.603V68.636H91.619ZM95.207 62.372V61.616H97.403V58.388H98.303V66.224H97.403V62.372H95.207ZM101.183 58.82H106.091V59.528H102.107V61.16H106.211V61.856H104.111V62.96C105.095 62.912 106.091 62.84 107.015 62.732L107.075 63.368C104.843 63.704 102.335 63.776 100.355 63.776L100.235 63.044C101.147 63.044 102.167 63.032 103.211 62.996V61.856H101.183V58.82ZM101.867 65.24V64.532H108.755V66.944H102.767V68.024H109.127V68.756H101.879V66.248H107.879V65.24H101.867ZM107.867 64.028V58.376H108.755V64.028H107.867ZM117.713 58.76H118.649V59.36C118.649 60.848 120.593 62.132 122.441 62.408L122.069 63.128C120.473 62.852 118.865 61.94 118.193 60.656C117.533 61.964 115.913 62.852 114.293 63.128L113.921 62.408C115.793 62.132 117.713 60.884 117.713 59.36V58.76ZM113.429 65.06V64.316H122.921V65.06H118.601V68.876H117.713V65.06H113.429ZM129.335 64.856H130.199V65.432C130.199 66.38 130.703 67.376 131.687 67.952C132.707 67.316 133.223 66.248 133.223 65.432V64.856H134.099V65.432C134.099 66.524 134.903 67.604 136.223 68.06L135.779 68.732C134.747 68.36 134.015 67.616 133.643 66.74C133.331 67.592 132.695 68.408 131.723 68.828C130.715 68.432 130.067 67.664 129.755 66.776C129.383 67.616 128.663 68.348 127.667 68.732L127.211 68.06C128.531 67.58 129.335 66.44 129.335 65.432V64.856ZM126.935 61.448C126.935 59.996 128.075 59 129.659 59C131.243 59 132.383 59.996 132.383 61.448C132.383 62.888 131.243 63.872 129.659 63.872C128.075 63.872 126.935 62.888 126.935 61.448ZM127.811 61.448C127.811 62.444 128.591 63.128 129.659 63.128C130.739 63.128 131.507 62.444 131.507 61.448C131.507 60.452 130.739 59.756 129.659 59.756C128.591 59.756 127.811 60.452 127.811 61.448ZM134.375 64.388V58.388H135.287V64.388H134.375ZM138.383 64.664H139.271V65.924H144.515V64.664H145.403V68.732H138.383V64.664ZM137.171 63.92V63.188H146.651V63.92H137.171ZM137.723 61.7C139.559 61.448 141.455 60.332 141.455 58.976V58.496H142.379V58.976C142.379 60.296 144.299 61.46 146.111 61.7L145.775 62.408C144.191 62.168 142.583 61.34 141.923 60.164C141.263 61.352 139.655 62.168 138.059 62.408L137.723 61.7ZM139.271 68H144.515V66.632H139.271V68ZM155.34 58.376H156.228V68.876H155.34V58.376ZM148.332 66.152V59.408H149.232V65.372C150.816 65.372 152.46 65.252 154.224 64.88L154.344 65.648C152.508 66.02 150.852 66.152 149.196 66.152H148.332ZM165.312 58.364H166.212V62.54H167.952V63.296H166.212V68.888H165.312V58.364ZM158.616 66.26V59.408H163.488V60.14H159.504V65.492C161.436 65.492 162.768 65.432 164.304 65.132L164.412 65.9C162.792 66.2 161.424 66.26 159.432 66.26H158.616ZM23.6681 87.62C23.6681 87.26 23.7241 86.972 23.8361 86.756C23.9561 86.532 24.1161 86.372 24.3161 86.276C24.5241 86.18 24.7521 86.132 25.0001 86.132C25.2481 86.132 25.4721 86.18 25.6721 86.276C25.8721 86.372 26.0321 86.532 26.1521 86.756C26.2721 86.972 26.3321 87.26 26.3321 87.62C26.3321 87.972 26.2721 88.26 26.1521 88.484C26.0321 88.7 25.8721 88.86 25.6721 88.964C25.4721 89.06 25.2481 89.108 25.0001 89.108C24.7521 89.108 24.5241 89.06 24.3161 88.964C24.1161 88.86 23.9561 88.7 23.8361 88.484C23.7241 88.26 23.6681 87.972 23.6681 87.62ZM42.484 82.376H43.36V92.876H42.484V87.368H41.02V92.348H40.156V82.652H41.02V86.624H42.484V82.376ZM34.492 89.96C36.94 88.604 37.924 86.672 38.068 84.488H34.876V83.744H38.956C38.956 86.408 38.02 88.928 35.02 90.62L34.492 89.96ZM52.6483 82.388H53.5603V90.056H52.6483V82.388ZM45.2083 85.7C45.2083 84.176 46.3843 83.12 47.9323 83.12C49.4923 83.12 50.6563 84.176 50.6563 85.7C50.6563 87.2 49.4923 88.268 47.9323 88.268C46.3843 88.268 45.2083 87.2 45.2083 85.7ZM46.0843 85.7C46.0843 86.732 46.8883 87.476 47.9323 87.476C48.9883 87.476 49.7923 86.732 49.7923 85.7C49.7923 84.644 48.9883 83.9 47.9323 83.9C46.8883 83.9 46.0843 84.644 46.0843 85.7ZM46.8523 92.636V89.276H47.7403V91.892H53.8843V92.636H46.8523ZM61.0366 85.124H63.1726V82.376H64.0726V88.628H63.1726V85.868H61.0366V85.124ZM55.5046 87.812C57.0406 87.248 58.1566 85.832 58.1566 84.308V83.9H55.7806V83.156H61.3846V83.9H59.0566V84.308C59.0566 85.676 60.1126 86.984 61.6246 87.512L61.1566 88.232C59.9806 87.8 59.0686 86.912 58.6246 85.82C58.1806 87.068 57.1966 88.052 55.9606 88.532L55.5046 87.812ZM57.1366 90.92C57.1366 89.696 58.4566 88.964 60.6286 88.964C62.7886 88.964 64.1086 89.696 64.1086 90.92C64.1086 92.156 62.7886 92.864 60.6286 92.864C58.4566 92.864 57.1366 92.156 57.1366 90.92ZM58.0366 90.92C58.0366 91.688 59.0206 92.156 60.6286 92.156C62.2246 92.156 63.2206 91.688 63.2206 90.92C63.2206 90.14 62.2246 89.672 60.6286 89.672C59.0206 89.672 58.0366 90.14 58.0366 90.92ZM65.9448 90.764H70.2408V88.472H67.0848V83.12H67.9728V85.016H73.4208V83.12H74.3088V88.472H71.1288V90.764H75.4608V91.52H65.9448V90.764ZM67.9728 87.74H73.4208V85.76H67.9728V87.74ZM83.5851 82.364H84.4971V86.66H86.1891V87.416H84.4971V92.876H83.5851V82.364ZM76.5171 90.164C79.2171 88.808 80.6811 86.744 80.8851 84.248H76.9971V83.504H81.7971C81.7971 86.468 80.4051 89.168 77.0211 90.86L76.5171 90.164ZM89.687 90.8H93.971V88.352H90.563V87.62H92.183V84.128H90.539V83.396H98.303V84.128H96.647V87.62H98.291V88.352H94.859V90.8H99.203V91.556H89.687V90.8ZM93.095 87.62H95.759V84.128H93.095V87.62ZM107.411 82.376H108.311V85.184H109.883V85.928H108.311V88.688H107.411V82.376ZM100.211 84.236V83.504H102.863V82.28H103.763V83.504H106.415V84.236H100.211ZM100.811 86.648C100.811 85.52 101.807 84.776 103.307 84.776C104.807 84.776 105.815 85.52 105.815 86.648C105.815 87.788 104.807 88.52 103.307 88.52C101.807 88.52 100.811 87.788 100.811 86.648ZM101.663 86.648C101.663 87.368 102.323 87.824 103.307 87.824C104.291 87.824 104.951 87.368 104.951 86.648C104.951 85.928 104.291 85.472 103.307 85.472C102.323 85.472 101.663 85.928 101.663 86.648ZM101.747 92.732V89.3H108.311V92.732H101.747ZM102.623 92H107.423V90.032H102.623V92ZM111.492 83.384H116.808V84.116H112.392V86.924H116.856V87.668H114.564V89.756C115.596 89.708 116.616 89.648 117.588 89.528L117.66 90.188C115.356 90.536 112.836 90.596 110.832 90.584L110.712 89.828C111.624 89.828 112.632 89.816 113.664 89.78V87.668H111.492V83.384ZM118.284 92.888V82.364H119.184V92.888H118.284ZM128.856 82.376H129.744V92.876H128.856V87.356H126.36V86.6H128.856V82.376ZM121.152 90.164C123.984 88.772 125.304 86.732 125.484 84.248H121.596V83.504H126.384C126.384 86.48 125.124 89.132 121.656 90.86L121.152 90.164ZM138.804 82.364H139.704V86.588H141.396V87.344H139.704V92.876H138.804V82.364ZM132.084 90.2V83.408H132.972V89.456C134.496 89.456 136.08 89.336 137.796 88.976L137.904 89.732C136.104 90.092 134.508 90.2 132.912 90.2H132.084ZM144.894 88.628H154.41V89.36H150.066V92.876H149.178V89.36H144.894V88.628ZM146.106 87.344V82.82H146.994V84.272H152.286V82.82H153.174V87.344H146.106ZM146.994 86.6H152.286V85.004H146.994V86.6ZM160.974 85.136H163.086V82.376H163.986V88.652H163.086V85.892H160.974V85.136ZM155.418 87.776C156.954 87.224 158.07 85.832 158.07 84.32V83.852H155.706V83.108H161.31V83.852H158.97V84.32C158.97 85.688 160.038 86.996 161.55 87.524L161.082 88.244C159.906 87.812 158.994 86.924 158.55 85.832C158.106 87.056 157.122 88.028 155.886 88.484L155.418 87.776ZM157.002 89.984V89.24H163.986V92.876H163.086V89.984H157.002ZM171.463 84.74H173.587V82.376H174.475V87.8H173.587V85.472H171.463V84.74ZM165.919 87.212C167.443 86.684 168.559 85.364 168.559 83.984V83.672H166.207V82.928H171.799V83.672H169.459V83.996C169.459 85.268 170.527 86.48 172.015 86.96L171.583 87.668C170.395 87.272 169.471 86.432 169.015 85.4C168.571 86.552 167.599 87.488 166.363 87.908L165.919 87.212ZM167.743 89.072V88.352H174.475V90.824H168.655V92.036H174.883V92.756H167.767V90.14H173.587V89.072H167.743ZM183.595 82.388H184.495V85.856H186.067V86.612H184.495V90.26H183.595V82.388ZM176.395 84.404V83.672H179.047V82.388H179.947V83.672H182.599V84.404H176.395ZM176.995 86.96C176.995 85.772 178.003 85.004 179.491 85.004C180.979 85.004 181.999 85.772 181.999 86.96C181.999 88.136 180.979 88.904 179.491 88.904C178.003 88.904 176.995 88.136 176.995 86.96ZM177.847 86.96C177.847 87.704 178.507 88.196 179.491 88.196C180.475 88.196 181.135 87.704 181.135 86.96C181.135 86.204 180.475 85.712 179.491 85.712C178.507 85.712 177.847 86.204 177.847 86.96ZM177.991 92.636V89.624H178.879V91.892H184.987V92.636H177.991ZM190.837 82.82H197.881V83.504C197.881 84.2 197.881 85.112 197.653 86.312H199.129V87.044H189.613V86.312H196.753C196.993 85.136 197.005 84.26 197.005 83.564H190.837V82.82ZM190.741 88.844V88.124H197.929V90.752H191.665V92.024H198.193V92.756H190.777V90.056H197.041V88.844H190.741ZM200.101 87.92H209.581V88.652H200.101V87.92ZM201.157 84.824C201.157 83.516 202.597 82.736 204.841 82.736C207.085 82.736 208.525 83.516 208.525 84.824C208.525 86.132 207.085 86.912 204.841 86.912C202.597 86.912 201.157 86.132 201.157 84.824ZM201.337 92.648V89.6H202.237V91.904H208.537V92.648H201.337ZM202.081 84.824C202.081 85.664 203.173 86.18 204.841 86.18C206.521 86.18 207.601 85.664 207.601 84.824C207.601 83.984 206.521 83.48 204.841 83.48C203.173 83.48 202.081 83.984 202.081 84.824ZM221.023 82.364H221.923V92.888H221.023V82.364ZM213.955 90.344V83.276H214.855V86.06H217.987V83.276H218.875V90.344H213.955ZM214.855 89.6H217.987V86.78H214.855V89.6ZM225.031 83.276H225.931V87.164H232.267V87.908H229.039V90.752H233.359V91.496H223.843V90.752H228.139V87.908H225.031V83.276ZM234.344 87.056H243.812V87.752H239.516V88.748H242.588V91.016H236.396V92.06H242.912V92.756H235.52V90.368H241.712V89.432H235.484V88.748H238.616V87.752H234.344V87.056ZM234.848 85.868C236.756 85.748 238.424 85.076 238.58 83.996H235.316V83.3H238.628V82.304H239.528V83.3H242.852V83.996H239.576C239.732 85.076 241.388 85.748 243.296 85.868L243.032 86.564C241.304 86.42 239.72 85.868 239.072 84.872C238.436 85.868 236.852 86.42 235.124 86.564L234.848 85.868ZM252.589 83.36H256.237V84.104H253.477V87.272H256.357V88.004H252.589V83.36ZM247.585 91.52V90.764H251.881V88.532H252.769V90.764H257.101V91.52H247.585ZM248.425 88.004V83.372H251.941V84.128H249.313V87.248C250.201 87.236 251.077 87.188 252.049 86.948L252.133 87.716C250.993 87.968 250.021 88.004 248.989 88.004H248.425ZM259.37 82.76H260.258V85.568H266.486V86.3H259.37V82.76ZM258.074 88.484V87.74H267.59V88.484H258.074ZM259.31 92.624V89.552H260.198V91.88H266.546V92.624H259.31ZM278.948 82.376H279.848V92.876H278.948V82.376ZM271.376 90.08C272.264 90.08 273.284 90.08 274.34 90.044V88.88C273.092 88.748 272.288 88.028 272.288 86.972C272.288 85.796 273.284 85.028 274.784 85.028C276.284 85.028 277.304 85.796 277.304 86.972C277.304 88.016 276.488 88.736 275.252 88.88V90.008C276.272 89.96 277.304 89.888 278.264 89.756L278.324 90.428C275.996 90.824 273.44 90.848 271.508 90.848L271.376 90.08ZM271.604 84.404V83.672H274.34V82.376H275.252V83.672H277.988V84.404H271.604ZM273.128 86.972C273.128 87.716 273.812 88.196 274.784 88.196C275.78 88.196 276.452 87.716 276.452 86.972C276.452 86.216 275.78 85.724 274.784 85.724C273.812 85.724 273.128 86.216 273.128 86.972ZM289.472 82.376H290.372V90.368H289.472V89.252H287.324V88.592H289.472V82.376ZM281.744 87.248C283.688 87.248 286.292 87.224 288.536 86.948L288.596 87.596C287.66 87.752 286.676 87.848 285.716 87.896V89.984H284.816V87.944C283.76 87.992 282.752 88.004 281.876 88.004L281.744 87.248ZM282.584 84.632C282.584 83.528 283.628 82.808 285.164 82.808C286.7 82.808 287.744 83.528 287.744 84.632C287.744 85.748 286.7 86.456 285.164 86.456C283.628 86.456 282.584 85.748 282.584 84.632ZM283.256 92.636V89.588H284.156V91.892H290.636V92.636H283.256ZM283.436 84.632C283.436 85.328 284.156 85.772 285.164 85.772C286.184 85.772 286.88 85.328 286.88 84.632C286.88 83.936 286.184 83.48 285.164 83.48C284.156 83.48 283.436 83.936 283.436 84.632ZM300.65 85.124H302.786V82.376H303.686V88.628H302.786V85.868H300.65V85.124ZM295.118 87.812C296.654 87.248 297.77 85.832 297.77 84.308V83.9H295.394V83.156H300.998V83.9H298.67V84.308C298.67 85.676 299.726 86.984 301.238 87.512L300.77 88.232C299.594 87.8 298.682 86.912 298.238 85.82C297.794 87.068 296.81 88.052 295.574 88.532L295.118 87.812ZM296.75 90.92C296.75 89.696 298.07 88.964 300.242 88.964C302.402 88.964 303.722 89.696 303.722 90.92C303.722 92.156 302.402 92.864 300.242 92.864C298.07 92.864 296.75 92.156 296.75 90.92ZM297.65 90.92C297.65 91.688 298.634 92.156 300.242 92.156C301.838 92.156 302.834 91.688 302.834 90.92C302.834 90.14 301.838 89.672 300.242 89.672C298.634 89.672 297.65 90.14 297.65 90.92ZM305.882 83.456H311.75V84.212H309.254V85.628C309.254 87.416 310.574 89.216 312.086 89.876L311.57 90.596C310.37 90.032 309.302 88.808 308.81 87.356C308.33 88.904 307.274 90.248 306.074 90.848L305.558 90.14C307.034 89.42 308.354 87.44 308.354 85.628V84.212H305.882V83.456ZM313.214 92.876V82.376H314.114V92.876H313.214ZM319.376 83.06H324.236V87.332H319.376V83.06ZM320.132 92.144C321.908 91.928 323.648 90.92 323.648 89.852H320.552V89.144H323.648V88.112H324.56V89.144H327.656V89.852H324.56C324.56 90.896 326.264 91.916 328.016 92.144L327.716 92.84C326.156 92.624 324.716 91.868 324.104 90.884C323.468 91.88 322.004 92.624 320.444 92.84L320.132 92.144ZM320.24 86.612H323.372V83.78H320.24V86.612ZM326.504 88.412V82.376H327.404V88.412H326.504ZM34.984 102.904H39.76V103.636H35.884V104.8H39.58V105.508H35.884V106.744C37.948 106.744 39.1 106.708 40.492 106.468L40.576 107.188C39.136 107.44 37.936 107.476 35.776 107.476H34.984V102.904ZM35.992 109.096V108.376H42.628V110.824H36.904V112.036H43.012V112.756H36.016V110.152H41.74V109.096H35.992ZM41.728 107.86V102.376H42.628V104.692H44.188V105.436H42.628V107.86H41.728ZM45.8083 103.348H51.2323V104.068H46.7083V105.364H51.0043V106.084H46.7083V107.452H51.2683V108.184H48.9163V109.912C49.9243 109.864 50.9443 109.768 51.8923 109.624L51.9643 110.296C49.6003 110.74 47.0203 110.752 45.1363 110.752L45.0163 109.984C45.8923 109.984 46.9243 109.984 48.0043 109.948V108.184H45.8083V103.348ZM52.5883 112.888V102.364H53.4883V112.888H52.5883ZM60.8262 103.3H61.7022V105.208C61.7022 107.056 62.9262 108.976 64.4022 109.708L63.8502 110.416C62.7102 109.816 61.7382 108.568 61.2822 107.092C60.8142 108.652 59.8182 109.996 58.6422 110.632L58.0902 109.9C59.5902 109.144 60.8262 107.128 60.8262 105.208V103.3ZM65.3742 112.876V102.376H66.2742V106.648H68.0262V107.416H66.2742V112.876H65.3742ZM68.7105 108.364H78.2265V109.12H75.7065V112.876H74.7945V109.12H72.1065V112.876H71.1825V109.12H68.7105V108.364ZM69.7785 105.088C69.7785 103.684 71.2545 102.82 73.4385 102.82C75.6345 102.82 77.0985 103.684 77.0985 105.088C77.0985 106.492 75.6345 107.368 73.4385 107.368C71.2545 107.368 69.7785 106.492 69.7785 105.088ZM70.7025 105.088C70.7025 106.036 71.8065 106.636 73.4385 106.636C75.0705 106.636 76.1865 106.036 76.1865 105.088C76.1865 104.152 75.0705 103.54 73.4385 103.54C71.8065 103.54 70.7025 104.152 70.7025 105.088ZM86.3508 102.364H87.2628V106.66H88.9548V107.416H87.2628V112.876H86.3508V102.364ZM79.2828 110.164C81.9828 108.808 83.4468 106.744 83.6508 104.248H79.7628V103.504H84.5628C84.5628 106.468 83.1708 109.168 79.7868 110.86L79.2828 110.164ZM93.4607 102.82H98.3687V103.528H94.3847V105.16H98.4887V105.856H96.3887V106.96C97.3727 106.912 98.3687 106.84 99.2927 106.732L99.3527 107.368C97.1207 107.704 94.6127 107.776 92.6327 107.776L92.5127 107.044C93.4247 107.044 94.4447 107.032 95.4887 106.996V105.856H93.4607V102.82ZM94.1447 109.24V108.532H101.033V110.944H95.0447V112.024H101.405V112.756H94.1567V110.248H100.157V109.24H94.1447ZM100.145 108.028V102.376H101.033V108.028H100.145ZM109.991 102.76H110.927V103.36C110.927 104.848 112.871 106.132 114.719 106.408L114.347 107.128C112.751 106.852 111.143 105.94 110.471 104.656C109.811 105.964 108.191 106.852 106.571 107.128L106.199 106.408C108.071 106.132 109.991 104.884 109.991 103.36V102.76ZM105.707 109.06V108.316H115.199V109.06H110.879V112.876H109.991V109.06H105.707ZM121.612 108.856H122.476V109.432C122.476 110.38 122.98 111.376 123.964 111.952C124.984 111.316 125.5 110.248 125.5 109.432V108.856H126.376V109.432C126.376 110.524 127.18 111.604 128.5 112.06L128.056 112.732C127.024 112.36 126.292 111.616 125.92 110.74C125.608 111.592 124.972 112.408 124 112.828C122.992 112.432 122.344 111.664 122.032 110.776C121.66 111.616 120.94 112.348 119.944 112.732L119.488 112.06C120.808 111.58 121.612 110.44 121.612 109.432V108.856ZM119.212 105.448C119.212 103.996 120.352 103 121.936 103C123.52 103 124.66 103.996 124.66 105.448C124.66 106.888 123.52 107.872 121.936 107.872C120.352 107.872 119.212 106.888 119.212 105.448ZM120.088 105.448C120.088 106.444 120.868 107.128 121.936 107.128C123.016 107.128 123.784 106.444 123.784 105.448C123.784 104.452 123.016 103.756 121.936 103.756C120.868 103.756 120.088 104.452 120.088 105.448ZM126.652 108.388V102.388H127.564V108.388H126.652ZM130.661 108.664H131.549V109.924H136.793V108.664H137.681V112.732H130.661V108.664ZM129.449 107.92V107.188H138.929V107.92H129.449ZM130.001 105.7C131.837 105.448 133.733 104.332 133.733 102.976V102.496H134.657V102.976C134.657 104.296 136.577 105.46 138.389 105.7L138.053 106.408C136.469 106.168 134.861 105.34 134.201 104.164C133.541 105.352 131.933 106.168 130.337 106.408L130.001 105.7ZM131.549 112H136.793V110.632H131.549V112ZM147.617 102.376H148.505V112.876H147.617V102.376ZM140.609 110.152V103.408H141.509V109.372C143.093 109.372 144.737 109.252 146.501 108.88L146.621 109.648C144.785 110.02 143.129 110.152 141.473 110.152H140.609ZM157.589 102.364H158.489V106.54H160.229V107.296H158.489V112.888H157.589V102.364ZM150.893 110.26V103.408H155.765V104.14H151.781V109.492C153.713 109.492 155.045 109.432 156.581 109.132L156.689 109.9C155.069 110.2 153.701 110.26 151.709 110.26H150.893ZM23.6681 131.62C23.6681 131.26 23.7241 130.972 23.8361 130.756C23.9561 130.532 24.1161 130.372 24.3161 130.276C24.5241 130.18 24.7521 130.132 25.0001 130.132C25.2481 130.132 25.4721 130.18 25.6721 130.276C25.8721 130.372 26.0321 130.532 26.1521 130.756C26.2721 130.972 26.3321 131.26 26.3321 131.62C26.3321 131.972 26.2721 132.26 26.1521 132.484C26.0321 132.7 25.8721 132.86 25.6721 132.964C25.4721 133.06 25.2481 133.108 25.0001 133.108C24.7521 133.108 24.5241 133.06 24.3161 132.964C24.1161 132.86 23.9561 132.7 23.8361 132.484C23.7241 132.26 23.6681 131.972 23.6681 131.62ZM35.704 126.82H42.748V127.504C42.748 128.2 42.748 129.112 42.52 130.312H43.996V131.044H34.48V130.312H41.62C41.86 129.136 41.872 128.26 41.872 127.564H35.704V126.82ZM35.608 132.844V132.124H42.796V134.752H36.532V136.024H43.06V136.756H35.644V134.056H41.908V132.844H35.608ZM47.7459 131.404H57.2259V132.148H47.7459V131.404ZM48.8859 134.968C48.8859 133.768 50.2299 133.084 52.4739 133.084C54.7059 133.084 56.0619 133.768 56.0619 134.968C56.0619 136.18 54.7059 136.864 52.4739 136.864C50.2299 136.864 48.8859 136.18 48.8859 134.968ZM48.9459 130.372V126.808H56.0379V127.564H49.8339V129.64H56.1099V130.372H48.9459ZM49.7859 134.968C49.7859 135.724 50.8059 136.144 52.4739 136.144C54.1419 136.144 55.1499 135.724 55.1499 134.968C55.1499 134.236 54.1419 133.792 52.4739 133.792C50.8059 133.792 49.7859 134.236 49.7859 134.968ZM58.2222 132.172H62.5182V131.02H59.4582V128.5H65.6142V127.372H59.4342V126.652H66.5022V129.16H60.3342V130.312H66.7302V131.02H63.4182V132.172H67.7382V132.916H58.2222V132.172ZM59.2782 134.476V133.732H66.5622V136.768H65.6622V134.476H59.2782ZM70.0545 135.088L69.3945 137.308H68.7585L69.1185 135.088H70.0545ZM79.0413 126.76H79.9773V127.36C79.9773 128.848 81.9213 130.132 83.7693 130.408L83.3973 131.128C81.8013 130.852 80.1933 129.94 79.5213 128.656C78.8613 129.964 77.2413 130.852 75.6213 131.128L75.2493 130.408C77.1213 130.132 79.0413 128.884 79.0413 127.36V126.76ZM74.7573 133.06V132.316H84.2493V133.06H79.9293V136.876H79.0413V133.06H74.7573ZM90.8256 129.124H92.9616V126.376H93.8616V132.628H92.9616V129.868H90.8256V129.124ZM85.2936 131.812C86.8296 131.248 87.9456 129.832 87.9456 128.308V127.9H85.5696V127.156H91.1736V127.9H88.8456V128.308C88.8456 129.676 89.9016 130.984 91.4136 131.512L90.9456 132.232C89.7696 131.8 88.8576 130.912 88.4136 129.82C87.9696 131.068 86.9856 132.052 85.7496 132.532L85.2936 131.812ZM86.9256 134.92C86.9256 133.696 88.2456 132.964 90.4176 132.964C92.5776 132.964 93.8976 133.696 93.8976 134.92C93.8976 136.156 92.5776 136.864 90.4176 136.864C88.2456 136.864 86.9256 136.156 86.9256 134.92ZM87.8256 134.92C87.8256 135.688 88.8096 136.156 90.4176 136.156C92.0136 136.156 93.0096 135.688 93.0096 134.92C93.0096 134.14 92.0136 133.672 90.4176 133.672C88.8096 133.672 87.8256 134.14 87.8256 134.92ZM97.0779 135.088L96.4179 137.308H95.7819L96.1419 135.088H97.0779ZM104.397 126.904H105.273V128.068C105.273 129.508 106.365 130.816 107.853 131.356L107.397 132.064C106.233 131.632 105.309 130.732 104.853 129.616C104.409 130.84 103.473 131.8 102.237 132.268L101.769 131.548C103.329 130.984 104.397 129.604 104.397 127.996V126.904ZM103.125 134.008V133.276H109.917V136.876H109.017V134.008H103.125ZM109.017 132.736V126.376H109.917V129.172H111.489V129.928H109.917V132.736H109.017ZM120.297 126.376H121.161V136.876H120.297V126.376ZM112.149 134.092C113.589 133.216 114.441 131.296 114.441 129.364V128.368H112.413V127.624H117.225V128.368H115.317V129.364C115.317 131.188 116.133 133.024 117.561 133.852L117.009 134.512C115.989 133.888 115.257 132.748 114.885 131.404C114.525 132.856 113.757 134.104 112.701 134.764L112.149 134.092ZM116.421 130.912V130.168H118.197V126.628H119.037V136.324H118.197V130.912H116.421ZM133.539 126.376H134.403V136.876H133.539V131.428H132.003V136.324H131.163V126.616H132.003V130.672H133.539V126.376ZM126.051 134.14V127.66H126.939V133.348C127.971 133.336 129.099 133.264 130.383 133.012L130.491 133.804C129.051 134.08 127.851 134.14 126.711 134.14H126.051ZM136.011 131.596H138.375V130.096C137.535 129.76 137.067 129.232 137.067 128.524C137.067 127.288 138.483 126.58 140.751 126.58C143.019 126.58 144.435 127.288 144.435 128.524C144.435 129.232 143.967 129.76 143.139 130.084V131.596H145.491V132.316H136.011V131.596ZM137.163 134.992C137.163 133.816 138.507 133.144 140.751 133.144C142.995 133.144 144.339 133.816 144.339 134.992C144.339 136.192 142.995 136.864 140.751 136.864C138.507 136.864 137.163 136.192 137.163 134.992ZM137.991 128.524C137.991 129.292 139.059 129.76 140.751 129.76C142.443 129.76 143.511 129.292 143.511 128.524C143.511 127.744 142.443 127.276 140.751 127.276C139.059 127.276 137.991 127.744 137.991 128.524ZM138.063 134.992C138.063 135.736 139.071 136.156 140.751 136.156C142.419 136.156 143.427 135.736 143.427 134.992C143.427 134.272 142.419 133.84 140.751 133.84C139.071 133.84 138.063 134.272 138.063 134.992ZM139.263 131.596H142.251V130.336C141.807 130.408 141.303 130.456 140.751 130.456C140.199 130.456 139.707 130.42 139.263 130.336V131.596ZM154.168 126.364H155.068V136.888H154.168V126.364ZM146.884 130.84C146.884 128.608 147.988 127.192 149.548 127.192C151.096 127.192 152.2 128.608 152.2 130.84C152.2 133.072 151.096 134.5 149.548 134.5C147.988 134.5 146.884 133.072 146.884 130.84ZM147.76 130.84C147.76 132.556 148.492 133.696 149.548 133.696C150.592 133.696 151.336 132.556 151.336 130.84C151.336 129.124 150.592 127.996 149.548 127.996C148.492 127.996 147.76 129.124 147.76 130.84ZM165.117 127.06C165.117 129.688 163.245 131.572 160.233 132.436L159.861 131.728C162.369 131.02 163.965 129.616 164.145 127.792H160.401V127.06H165.117ZM161.613 136.72V132.82H168.369V136.72H161.613ZM162.489 135.988H167.481V133.552H162.489V135.988ZM165.129 129.856V129.1H167.469V126.376H168.369V132.376H167.469V129.856H165.129ZM172.462 127.012H173.326V128.44C173.326 129.628 174.13 130.84 175.474 131.38L174.994 132.076C173.998 131.656 173.278 130.876 172.906 129.94C172.522 130.96 171.778 131.872 170.746 132.34L170.254 131.632C171.622 131.02 172.462 129.628 172.462 128.44V127.012ZM172.042 134.056V133.324H179.074V136.876H178.174V134.056H172.042ZM175.954 132.664V126.568H176.806V129.136H178.21V126.388H179.074V132.724H178.21V129.88H176.806V132.664H175.954ZM188.446 126.376H189.346V131.74H188.446V130.636H185.65V129.916H188.446V128.632H185.806C185.17 130.288 183.538 131.416 181.222 131.98L180.91 131.248C183.466 130.636 184.966 129.352 185.134 127.648H181.438V126.904H186.118C186.118 127.264 186.082 127.6 186.022 127.924H188.446V126.376ZM182.614 132.964V132.232H189.346V134.776H183.526V136.048H189.706V136.768H182.638V134.08H188.446V132.964H182.614ZM191.698 127.528H196.978V128.068C196.978 128.908 196.978 130.288 196.678 132.256L195.79 132.184C196.078 130.408 196.102 129.112 196.102 128.272H191.698V127.528ZM191.11 133.804C191.794 133.804 192.562 133.792 193.366 133.78V130.54H194.254V133.756C195.418 133.708 196.606 133.636 197.686 133.504L197.734 134.164C195.55 134.512 193.09 134.56 191.23 134.56L191.11 133.804ZM198.346 136.876V126.376H199.234V130.792H200.95V131.548H199.234V136.876H198.346ZM209.747 126.376H210.611V136.876H209.747V126.376ZM201.839 130.9C201.839 128.668 202.715 127.264 204.059 127.264C205.343 127.264 206.183 128.488 206.291 130.48H207.671V126.616H208.523V136.336H207.671V131.224H206.291C206.219 133.276 205.355 134.548 204.059 134.548C202.715 134.548 201.839 133.144 201.839 130.9ZM202.667 130.9C202.667 132.616 203.207 133.708 204.059 133.708C204.935 133.708 205.475 132.616 205.475 130.9C205.475 129.184 204.935 128.104 204.059 128.104C203.207 128.104 202.667 129.184 202.667 130.9ZM222.208 126.388H223.108V129.58H224.668V130.324H223.108V134.08H222.208V126.388ZM215.428 132.316V127.132H216.316V128.92H219.376V127.132H220.264V132.316H215.428ZM216.316 131.584H219.376V129.628H216.316V131.584ZM216.604 136.636V133.348H217.492V135.892H223.588V136.636H216.604ZM228.305 127C229.193 127 229.949 127.348 230.429 127.912H233.165V126.376H234.065V132.592H233.165V131.08H230.429C229.937 131.644 229.193 131.98 228.305 131.98C226.757 131.98 225.605 130.96 225.605 129.496C225.605 128.032 226.757 127 228.305 127ZM226.469 129.496C226.469 130.492 227.249 131.2 228.305 131.2C229.361 131.2 230.129 130.492 230.129 129.496C230.129 128.488 229.361 127.78 228.305 127.78C227.249 127.78 226.469 128.488 226.469 129.496ZM227.129 134.848C227.129 133.588 228.461 132.844 230.621 132.844C232.769 132.844 234.101 133.588 234.101 134.848C234.101 136.12 232.769 136.852 230.621 136.852C228.461 136.852 227.129 136.12 227.129 134.848ZM228.017 134.848C228.017 135.652 229.013 136.144 230.621 136.144C232.229 136.144 233.213 135.652 233.213 134.848C233.213 134.044 232.229 133.564 230.621 133.564C229.013 133.564 228.017 134.044 228.017 134.848ZM230.849 128.644C230.945 128.908 230.993 129.196 230.993 129.496C230.993 129.796 230.945 130.084 230.849 130.336H233.165V128.644H230.849ZM236.765 127.384H242.081V128.116H237.665V130.924H242.129V131.668H239.837V133.756C240.869 133.708 241.889 133.648 242.861 133.528L242.933 134.188C240.629 134.536 238.109 134.596 236.105 134.584L235.985 133.828C236.897 133.828 237.905 133.816 238.937 133.78V131.668H236.765V127.384ZM243.557 136.888V126.364H244.457V136.888H243.557ZM254.117 126.376H255.017V136.876H254.117V126.376ZM246.557 134.176C249.389 132.82 250.817 130.768 251.009 128.248H247.025V127.504H251.921C251.921 130.528 250.529 133.192 247.037 134.896L246.557 134.176ZM264.258 126.376H265.146V130.72H266.742V131.476H265.146V136.876H264.258V126.376ZM256.89 133.984C258.474 132.352 259.122 130.36 259.23 128.26H257.214V127.516H260.07C260.07 130 259.506 132.472 257.61 134.5L256.89 133.984ZM259.89 134.692C261.522 132.82 262.014 130.444 262.086 128.26H260.406V127.516H262.938C262.938 129.988 262.566 132.904 260.622 135.196L259.89 134.692ZM267.726 127.456H273.594V128.212H271.098V129.628C271.098 131.416 272.418 133.216 273.93 133.876L273.414 134.596C272.214 134.032 271.146 132.808 270.654 131.356C270.174 132.904 269.118 134.248 267.918 134.848L267.402 134.14C268.878 133.42 270.198 131.44 270.198 129.628V128.212H267.726V127.456ZM275.058 136.876V126.376H275.958V136.876H275.058ZM284.94 126.76H285.876V127.36C285.876 128.848 287.82 130.132 289.668 130.408L289.296 131.128C287.7 130.852 286.092 129.94 285.42 128.656C284.76 129.964 283.14 130.852 281.52 131.128L281.148 130.408C283.02 130.132 284.94 128.884 284.94 127.36V126.76ZM280.656 133.06V132.316H290.148V133.06H285.828V136.876H284.94V133.06H280.656ZM291.132 131.944H300.648V132.676H296.412V134.752H295.5V132.676H291.132V131.944ZM292.356 136.648V133.792H293.244V135.892H299.592V136.648H292.356ZM292.416 130.9V126.7H293.304V128.068H298.488V126.7H299.388V130.9H292.416ZM293.304 130.168H298.488V128.776H293.304V130.168ZM304.398 134.74H308.67V132.172H309.558V134.74H313.914V135.496H304.398V134.74ZM304.794 131.524C306.582 131.2 308.646 129.664 308.646 127.9V127.072H309.582V127.9C309.582 129.664 311.67 131.2 313.446 131.524L313.05 132.28C311.478 131.932 309.798 130.852 309.114 129.34C308.43 130.84 306.75 131.932 305.178 132.28L304.794 131.524ZM314.886 134.764H317.25V131.896C316.362 131.44 315.822 130.684 315.822 129.736C315.822 128.104 317.418 127.048 319.626 127.048C321.858 127.048 323.43 128.104 323.43 129.736C323.43 130.672 322.902 131.416 322.038 131.884V134.764H324.402V135.508H314.886V134.764ZM316.698 129.736C316.698 130.924 317.922 131.704 319.626 131.704C321.33 131.704 322.566 130.924 322.566 129.736C322.566 128.548 321.33 127.768 319.626 127.768C317.922 127.768 316.698 128.548 316.698 129.736ZM318.138 134.764H321.138V132.232C320.682 132.352 320.178 132.412 319.626 132.412C319.086 132.412 318.594 132.352 318.138 132.232V134.764ZM35.488 146.82H40.396V147.528H36.412V149.16H40.516V149.856H38.416V150.96C39.4 150.912 40.396 150.84 41.32 150.732L41.38 151.368C39.148 151.704 36.64 151.776 34.66 151.776L34.54 151.044C35.452 151.044 36.472 151.032 37.516 150.996V149.856H35.488V146.82ZM36.172 153.24V152.532H43.06V154.944H37.072V156.024H43.432V156.756H36.184V154.248H42.184V153.24H36.172ZM42.172 152.028V146.376H43.06V152.028H42.172ZM52.0179 146.76H52.9539V147.36C52.9539 148.848 54.8979 150.132 56.7459 150.408L56.3739 151.128C54.7779 150.852 53.1699 149.94 52.4979 148.656C51.8379 149.964 50.2179 150.852 48.5979 151.128L48.2259 150.408C50.0979 150.132 52.0179 148.884 52.0179 147.36V146.76ZM47.7339 153.06V152.316H57.2259V153.06H52.9059V156.876H52.0179V153.06H47.7339ZM63.6398 152.856H64.5038V153.432C64.5038 154.38 65.0078 155.376 65.9918 155.952C67.0118 155.316 67.5278 154.248 67.5278 153.432V152.856H68.4038V153.432C68.4038 154.524 69.2078 155.604 70.5278 156.06L70.0838 156.732C69.0518 156.36 68.3198 155.616 67.9478 154.74C67.6358 155.592 66.9998 156.408 66.0278 156.828C65.0198 156.432 64.3718 155.664 64.0598 154.776C63.6878 155.616 62.9678 156.348 61.9718 156.732L61.5158 156.06C62.8358 155.58 63.6398 154.44 63.6398 153.432V152.856ZM61.2398 149.448C61.2398 147.996 62.3798 147 63.9638 147C65.5478 147 66.6878 147.996 66.6878 149.448C66.6878 150.888 65.5478 151.872 63.9638 151.872C62.3798 151.872 61.2398 150.888 61.2398 149.448ZM62.1158 149.448C62.1158 150.444 62.8958 151.128 63.9638 151.128C65.0438 151.128 65.8118 150.444 65.8118 149.448C65.8118 148.452 65.0438 147.756 63.9638 147.756C62.8958 147.756 62.1158 148.452 62.1158 149.448ZM68.6798 152.388V146.388H69.5918V152.388H68.6798ZM72.6881 152.664H73.5761V153.924H78.8201V152.664H79.7081V156.732H72.6881V152.664ZM71.4761 151.92V151.188H80.9561V151.92H71.4761ZM72.0281 149.7C73.8641 149.448 75.7601 148.332 75.7601 146.976V146.496H76.6841V146.976C76.6841 148.296 78.6041 149.46 80.4161 149.7L80.0801 150.408C78.4961 150.168 76.8881 149.34 76.2281 148.164C75.5681 149.352 73.9601 150.168 72.3641 150.408L72.0281 149.7ZM73.5761 156H78.8201V154.632H73.5761V156ZM89.6444 146.376H90.5324V156.876H89.6444V146.376ZM82.6364 154.152V147.408H83.5364V153.372C85.1204 153.372 86.7644 153.252 88.5284 152.88L88.6484 153.648C86.8124 154.02 85.1564 154.152 83.5004 154.152H82.6364ZM99.6167 146.364H100.517V150.54H102.257V151.296H100.517V156.888H99.6167V146.364ZM92.9207 154.26V147.408H97.7927V148.14H93.8087V153.492C95.7407 153.492 97.0727 153.432 98.6087 153.132L98.7167 153.9C97.0967 154.2 95.7287 154.26 93.7367 154.26H92.9207Z" fill="#A3A3A3"/>
</svg>
