<svg width="24" height="24" viewBox="0 0 24 24" fill="none" xmlns="http://www.w3.org/2000/svg">
<path fill-rule="evenodd" clip-rule="evenodd" d="M12 6C13.1046 6 14 5.10457 14 4C14 2.89543 13.1046 2 12 2C10.8954 2 10 2.89543 10 4C10 5.10457 10.8954 6 12 6ZM12 21C13.6569 21 15 19.6569 15 18C15 16.3431 13.6569 15 12 15C10.3431 15 9 16.3431 9 18C9 19.6569 10.3431 21 12 21Z" fill="#A5ADFF"/>
<path fill-rule="evenodd" clip-rule="evenodd" d="M12 4C8.89999 4 6.23202 6.19062 5.6287 9.23135L5.26058 11.0867C5.19055 11.4396 5.16756 11.798 5.19052 12.1528C4.45554 12.878 4 13.8858 4 15C4 17.2091 5.79086 19 8 19H16C18.2091 19 20 17.2091 20 15C20 13.8858 19.5445 12.878 18.8095 12.1528C18.8324 11.798 18.8094 11.4396 18.7394 11.0867L18.3713 9.23135C17.768 6.19062 15.1 4 12 4Z" fill="#5061FF"/>
</svg>
