<svg width="117" height="39" viewBox="0 0 117 39" fill="none" xmlns="http://www.w3.org/2000/svg">
<path d="M85.3131 38.3839C84.3122 38.3839 83.5115 38.0836 82.8109 37.383C82.1103 36.6824 81.8101 35.8817 81.8101 34.8808V5.45498C81.8101 4.50414 82.1103 3.70344 82.8109 3.00282C83.5115 2.30221 84.3122 1.9519 85.3131 1.9519H98.3746C101.677 1.9519 104.73 2.80265 107.533 4.4541C110.285 6.10555 112.487 8.30748 114.138 11.0599C115.74 13.8123 116.591 16.865 116.591 20.1679C116.591 23.5208 115.74 26.5735 114.138 29.3259C112.487 32.1284 110.285 34.3303 107.533 35.9317C104.73 37.5832 101.677 38.3839 98.3746 38.3839H85.3131ZM88.7662 8.908V31.4278H98.3746C101.477 31.4278 104.13 30.3268 106.332 28.1249C108.533 25.9229 109.634 23.2706 109.634 20.1679C109.634 17.0652 108.533 14.4128 106.332 12.2109C104.13 10.009 101.477 8.908 98.3746 8.908H88.7662Z" fill="#5061FF"/>
<path d="M73.7743 22.6197H56.0588C55.158 22.6197 54.3573 22.3195 53.7567 21.6689C53.1062 21.0684 52.8059 20.2677 52.8059 19.3669C52.8059 18.5161 53.1062 17.7655 53.7567 17.1149C54.3573 16.5144 55.158 16.1641 56.0588 16.1641H73.7743C74.6751 16.1641 75.4257 16.5144 76.0763 17.1149C76.6768 17.7655 77.0272 18.5161 77.0272 19.3669C77.0272 20.2677 76.6768 21.0684 76.0763 21.6689C75.4257 22.3195 74.6751 22.6197 73.7743 22.6197Z" fill="#5061FF"/>
<path d="M44.3605 8.70764C45.2613 8.70764 46.062 9.05795 46.7626 9.75856C47.4632 10.4592 47.8135 11.2599 47.8135 12.2107V34.8806C47.8135 35.8815 47.4632 36.6822 46.7626 37.3828C46.062 38.0834 45.2613 38.3837 44.3605 38.3837C43.3596 38.3837 42.5589 38.0834 41.8583 37.3828C41.1577 36.6822 40.8574 35.8815 40.8574 34.8806V12.2107C40.8574 11.2599 41.1577 10.4592 41.8583 9.75856C42.5589 9.05795 43.3596 8.70764 44.3605 8.70764ZM44.3605 0C45.3113 0 46.112 0.35031 46.8126 1.05092C47.5133 1.75154 47.8636 2.60229 47.8636 3.55312C47.8636 4.554 47.5133 5.3547 46.8126 6.05531C46.112 6.75593 45.3113 7.10623 44.3605 7.10623C43.3596 7.10623 42.5089 6.75593 41.8082 6.05531C41.1076 5.3547 40.8074 4.554 40.8074 3.55312C40.8074 2.60229 41.1076 1.75154 41.8082 1.05092C42.5089 0.35031 43.3596 0 44.3605 0Z" fill="#454545"/>
<path d="M3.50307 38.3839C2.50219 38.3839 1.70149 38.0836 1.00088 37.383C0.300263 36.6824 0 35.8817 0 34.8808V5.45498C0 4.50414 0.300263 3.70344 1.00088 3.00282C1.70149 2.30221 2.50219 1.9519 3.50307 1.9519C4.40386 1.9519 5.20456 2.30221 5.90518 3.00282C6.60579 3.70344 6.9561 4.50414 6.9561 5.45498V16.7149H27.1238V13.6622V5.45498C27.1238 4.50414 27.4241 3.70344 28.1247 3.00282C28.8253 2.30221 29.626 1.9519 30.6269 1.9519C31.5277 1.9519 32.3284 2.30221 33.029 3.00282C33.7296 3.70344 34.0799 4.50414 34.0799 5.45498V13.6622V34.8808C34.0799 35.8817 33.7296 36.6824 33.029 37.383C32.3284 38.0836 31.5277 38.3839 30.6269 38.3839C29.626 38.3839 28.8253 38.0836 28.1247 37.383C27.4241 36.6824 27.1238 35.8817 27.1238 34.8808V23.6709H6.9561V34.8808C6.9561 35.8817 6.60579 36.6824 5.90518 37.383C5.20456 38.0836 4.40386 38.3839 3.50307 38.3839Z" fill="#454545"/>
</svg>
