<svg width="37" height="37" viewBox="0 0 37 37" fill="none" xmlns="http://www.w3.org/2000/svg">
<path fill-rule="evenodd" clip-rule="evenodd" d="M6.66699 13.9733C6.66699 10.9505 9.05481 8.5 12.0003 8.5H25.3337C28.2792 8.5 30.667 10.9505 30.667 13.9733V19.4466C30.667 22.4694 28.2792 24.9199 25.3337 24.9199H21.7462L19.3009 28.1798C18.9807 28.6067 18.3533 28.6067 18.0331 28.1798L15.5878 24.9199H12.0003C9.05481 24.9199 6.66699 22.4694 6.66699 19.4466V13.9733ZM13.3337 18.0783C14.07 18.0783 14.667 17.4657 14.667 16.71C14.667 15.9543 14.07 15.3416 13.3337 15.3416C12.5973 15.3416 12.0003 15.9543 12.0003 16.71C12.0003 17.4657 12.5973 18.0783 13.3337 18.0783ZM18.667 18.0783C19.4034 18.0783 20.0003 17.4657 20.0003 16.71C20.0003 15.9543 19.4034 15.3416 18.667 15.3416C17.9306 15.3416 17.3337 15.9543 17.3337 16.71C17.3337 17.4657 17.9306 18.0783 18.667 18.0783ZM25.3337 16.71C25.3337 17.4657 24.7367 18.0783 24.0003 18.0783C23.2639 18.0783 22.667 17.4657 22.667 16.71C22.667 15.9543 23.2639 15.3416 24.0003 15.3416C24.7367 15.3416 25.3337 15.9543 25.3337 16.71Z" fill="#E2E2E2"/>
</svg>
