<svg width="36" height="37" viewBox="0 0 36 37" fill="none" xmlns="http://www.w3.org/2000/svg">
<path fill-rule="evenodd" clip-rule="evenodd" d="M16.7377 8.91439C17.4971 8.36187 18.5029 8.36187 19.2622 8.91439L28.3284 15.5108C29.4206 16.3055 29.0923 17.9779 27.979 18.3902V26.1694C27.979 27.4566 26.9861 28.5 25.7614 28.5H10.2386C9.01385 28.5 8.02102 27.4566 8.02102 26.1694V18.3902C6.9077 17.9779 6.5794 16.3055 7.67162 15.5108L16.7377 8.91439ZM18 21.5084C17.3876 21.5084 16.8912 22.0302 16.8912 22.6737V25.0043C16.8912 25.6478 17.3876 26.1696 18 26.1696C18.6124 26.1696 19.1088 25.6478 19.1088 25.0043V22.6737C19.1088 22.0302 18.6124 21.5084 18 21.5084Z" fill="#E2E2E2"/>
</svg>
