<svg width="36" height="37" viewBox="0 0 36 37" fill="none" xmlns="http://www.w3.org/2000/svg">
<path fill-rule="evenodd" clip-rule="evenodd" d="M23 13.5C23 16.2614 20.7614 18.5 18 18.5C15.2386 18.5 13 16.2614 13 13.5C13 10.7386 15.2386 8.5 18 8.5C20.7614 8.5 23 10.7386 23 13.5ZM27.9928 24.2923C27.9976 24.2368 28 24.181 28 24.125C28 21.7088 23.5228 19.75 18 19.75C12.4772 19.75 8 21.7088 8 24.125C8 24.181 8.00241 24.2368 8.00718 24.2923C8.00242 24.3517 8 24.4117 8 24.4722V26.2778C8 27.5051 8.99492 28.5 10.2222 28.5H18H25.7778C27.0051 28.5 28 27.5051 28 26.2778V24.4722C28 24.4117 27.9976 24.3517 27.9928 24.2923Z" fill="#5061FF"/>
</svg>
