<svg width="37" height="37" viewBox="0 0 37 37" fill="none" xmlns="http://www.w3.org/2000/svg">
<path fill-rule="evenodd" clip-rule="evenodd" d="M22.8038 23.2956C21.503 24.5172 19.7523 25.2655 17.827 25.2655C13.8109 25.2655 10.5553 22.0099 10.5553 17.9939C10.5553 13.9778 13.8109 10.7222 17.827 10.7222C21.843 10.7222 25.0987 13.9778 25.0987 17.9939C25.0987 19.9193 24.3503 21.67 23.1286 22.9709C23.0657 23.0131 23.006 23.062 22.9505 23.1175C22.8949 23.1731 22.8461 23.2328 22.8038 23.2956ZM23.6486 25.4939C22.0409 26.7436 20.0209 27.4877 17.827 27.4877C12.5836 27.4877 8.33301 23.2372 8.33301 17.9939C8.33301 12.7505 12.5836 8.5 17.827 8.5C23.0703 8.5 27.3209 12.7505 27.3209 17.9939C27.3209 20.1878 26.5767 22.208 25.3269 23.8157L27.9854 26.4741C28.4489 26.9376 28.4489 27.689 27.9854 28.1524C27.522 28.6159 26.7706 28.6159 26.3071 28.1524L23.6486 25.4939Z" fill="#5061FF"/>
</svg>
